<?xml version="1.0" encoding="UTF-8" standalone="no"?>
<svg
   height="48"
   width="48"
   version="1.1"
   id="svg4"
   sodipodi:docname="data_object--OCEAN120.svg"
   inkscape:version="1.2.2 (b0a8486, 2022-12-01)"
   xmlns:inkscape="http://www.inkscape.org/namespaces/inkscape"
   xmlns:sodipodi="http://sodipodi.sourceforge.net/DTD/sodipodi-0.dtd"
   xmlns="http://www.w3.org/2000/svg"
   xmlns:svg="http://www.w3.org/2000/svg">
  <defs
     id="defs8" />
  <sodipodi:namedview
     id="namedview6"
     pagecolor="#ffffff"
     bordercolor="#000000"
     borderopacity="0.25"
     inkscape:showpageshadow="2"
     inkscape:pageopacity="0.0"
     inkscape:pagecheckerboard="0"
     inkscape:deskcolor="#d1d1d1"
     showgrid="false"
     inkscape:zoom="21.395833"
     inkscape:cx="16.521908"
     inkscape:cy="24.046738"
     inkscape:window-width="1390"
     inkscape:window-height="1067"
     inkscape:window-x="1953"
     inkscape:window-y="212"
     inkscape:window-maximized="0"
     inkscape:current-layer="svg4" />
  <path
     d="M28.5 40v-3h6q1.05 0 1.775-.725Q37 35.55 37 34.5v-5q0-1.85 1.125-3.3 1.125-1.45 2.875-2v-.4q-1.75-.5-2.875-1.975T37 18.5v-5q0-1.05-.725-1.775Q35.55 11 34.5 11h-6V8h6q2.3 0 3.9 1.6t1.6 3.9v5q0 1.05.725 1.775Q41.45 21 42.5 21H44v6h-1.5q-1.05 0-1.775.725Q40 28.45 40 29.5v5q0 2.3-1.6 3.9T34.5 40Zm-15 0q-2.3 0-3.9-1.6T8 34.5v-5q0-1.05-.725-1.775Q6.55 27 5.5 27H4v-6h1.5q1.05 0 1.775-.725Q8 19.55 8 18.5v-5q0-2.3 1.6-3.9T13.5 8h6v3h-6q-1.05 0-1.775.725Q11 12.45 11 13.5v5q0 1.85-1.125 3.325T7 23.8v.4q1.75.55 2.875 2T11 29.5v5q0 1.05.725 1.775Q12.45 37 13.5 37h6v3Z"
     id="path2"
     style="fill:#33a3a1;fill-opacity:1" />
</svg>
