<?xml version="1.0" encoding="UTF-8" standalone="no"?>
<svg
   enable-background="new 0 0 24 24"
   height="24px"
   viewBox="0 0 24 24"
   width="24px"
   fill="#000000"
   version="1.1"
   id="svg20"
   sodipodi:docname="diversity--lavender100.svg"
   inkscape:version="1.2.2 (b0a8486, 2022-12-01)"
   xmlns:inkscape="http://www.inkscape.org/namespaces/inkscape"
   xmlns:sodipodi="http://sodipodi.sourceforge.net/DTD/sodipodi-0.dtd"
   xmlns="http://www.w3.org/2000/svg"
   xmlns:svg="http://www.w3.org/2000/svg">
  <defs
     id="defs24" />
  <sodipodi:namedview
     id="namedview22"
     pagecolor="#ffffff"
     bordercolor="#000000"
     borderopacity="0.25"
     inkscape:showpageshadow="2"
     inkscape:pageopacity="0.0"
     inkscape:pagecheckerboard="0"
     inkscape:deskcolor="#d1d1d1"
     showgrid="false"
     inkscape:zoom="42.791667"
     inkscape:cx="12.023369"
     inkscape:cy="12.023369"
     inkscape:window-width="1390"
     inkscape:window-height="1067"
     inkscape:window-x="0"
     inkscape:window-y="25"
     inkscape:window-maximized="0"
     inkscape:current-layer="svg20" />
  <g
     id="g4">
    <rect
       fill="none"
       height="24"
       width="24"
       id="rect2" />
  </g>
  <g
     id="g18"
     style="fill:#584dae;fill-opacity:1">
    <g
       id="g16"
       style="fill:#584dae;fill-opacity:1">
      <path
         d="M6.32,13.01c0.96,0.02,1.85,0.5,2.45,1.34C9.5,15.38,10.71,16,12,16c1.29,0,2.5-0.62,3.23-1.66 c0.6-0.84,1.49-1.32,2.45-1.34C16.96,11.78,14.08,11,12,11C9.93,11,7.04,11.78,6.32,13.01z"
         id="path6"
         style="fill:#584dae;fill-opacity:1" />
      <path
         d="M4,13L4,13c1.66,0,3-1.34,3-3c0-1.66-1.34-3-3-3s-3,1.34-3,3C1,11.66,2.34,13,4,13z"
         id="path8"
         style="fill:#584dae;fill-opacity:1" />
      <path
         d="M20,13L20,13c1.66,0,3-1.34,3-3c0-1.66-1.34-3-3-3s-3,1.34-3,3C17,11.66,18.34,13,20,13z"
         id="path10"
         style="fill:#584dae;fill-opacity:1" />
      <path
         d="M12,10c1.66,0,3-1.34,3-3c0-1.66-1.34-3-3-3S9,5.34,9,7C9,8.66,10.34,10,12,10z"
         id="path12"
         style="fill:#584dae;fill-opacity:1" />
      <path
         d="M21,14h-3.27c-0.77,0-1.35,0.45-1.68,0.92C16.01,14.98,14.69,17,12,17c-1.43,0-3.03-0.64-4.05-2.08 C7.56,14.37,6.95,14,6.27,14H3c-1.1,0-2,0.9-2,2v4h7v-2.26c1.15,0.8,2.54,1.26,4,1.26s2.85-0.46,4-1.26V20h7v-4 C23,14.9,22.1,14,21,14z"
         id="path14"
         style="fill:#584dae;fill-opacity:1" />
    </g>
  </g>
</svg>
