<svg xmlns="http://www.w3.org/2000/svg" viewBox="0 0 288.09 158.21">
  <path fill="#343638" d="M35.36 138.23c-4 3.84-8.92 5.84-14.76 5.84s-10.76-2-14.76-5.84c-4-3.85-5.84-8.77-5.84-14.3 0-5.69 2-10.46 5.84-14.3 4-3.84 8.92-5.84 14.76-5.84s10.76 2 14.76 5.84 5.84 8.77 5.84 14.3a18.37 18.37 0 0 1-5.84 14.3zm-23.68-5.08c2.3 2.46 5.23 3.54 8.92 3.54a12.3 12.3 0 0 0 8.92-3.54 13.02 13.02 0 0 0 3.53-9.22c0-3.85-1.23-6.92-3.53-9.23-2.31-2.45-5.23-3.53-8.92-3.53a12.3 12.3 0 0 0-8.92 3.53 13.04 13.04 0 0 0-3.53 9.23c.15 3.84 1.23 6.92 3.53 9.22zm61.5-29.36c5.22 0 9.83 1.85 13.52 5.54 3.7 3.68 5.54 8.45 5.54 14.6 0 6-1.85 10.91-5.54 14.76-3.69 3.84-8 5.69-12.91 5.69-4.92 0-9.38-2.16-13.38-6.46v20.29h-8.3v-53.96h8.3v6.92c3.23-4.92 7.54-7.38 12.76-7.38zm-12.92 20.3c0 3.68 1.08 6.76 3.38 9.21a10.83 10.83 0 0 0 8.3 3.54 11.72 11.72 0 0 0 8.46-3.54c2.46-2.3 3.69-5.37 3.69-9.22 0-3.84-1.23-6.92-3.54-9.38a11.31 11.31 0 0 0-8.45-3.69c-3.23 0-6.15 1.24-8.3 3.7-2.46 2.45-3.54 5.53-3.54 9.37zm80.86 3.53h-30.74a8.89 8.89 0 0 0 3.84 6.92 14.06 14.06 0 0 0 8.3 2.61c4.92 0 8.61-1.54 11.22-4.61l4.77 5.23c-4.3 4.3-9.69 6.6-16.6 6.6a19.36 19.36 0 0 1-14-5.53c-3.83-3.7-5.84-8.6-5.84-14.76 0-6.15 2-11.07 5.85-14.75a19.8 19.8 0 0 1 13.83-5.54c5.23 0 9.84 1.54 13.68 4.77 3.7 3.22 5.54 7.68 5.54 13.37v5.69zM110.38 121h22.44c0-3.23-1.08-5.84-3.07-7.54-2-1.84-4.62-2.6-7.69-2.6-3.08 0-5.69.91-8.15 2.76a9.04 9.04 0 0 0-3.53 7.38zm51.8 1.38v21.21h-8.3v-39.35h8.3v7.23a15.1 15.1 0 0 1 5.54-5.7 14.54 14.54 0 0 1 7.53-1.99c4.46 0 8 1.38 10.76 4 2.77 2.76 4.15 6.6 4.15 11.68v23.98h-8.3v-21.52c0-7.23-3.07-10.92-9.07-10.92-2.92 0-5.38.93-7.38 2.77-2.15 2.16-3.22 4.92-3.22 8.6z"/>
  <path fill="#198cff" d="M236.44 143.6h-7.54v-5.22c-3.23 3.84-7.53 5.84-13.07 5.84-4.15 0-7.53-1.23-10.14-3.53-2.62-2.31-4-5.38-4-9.23 0-3.84 1.38-6.76 4.3-8.6 2.93-1.85 6.77-2.93 11.54-2.93h10.75v-1.53c0-5.23-2.92-7.85-8.76-7.85-3.69 0-7.38 1.39-11.37 4l-3.7-5.22a25.07 25.07 0 0 1 16.3-5.7c4.61 0 8.46 1.24 11.38 3.54s4.46 6 4.46 11.07v25.36zm-8.3-14.6v-3.38h-9.23c-6 0-8.92 1.84-8.92 5.53 0 1.85.77 3.39 2.15 4.46 1.54 1.08 3.54 1.54 6.15 1.54 2.62 0 4.93-.77 6.92-2.15a7.58 7.58 0 0 0 2.92-6zm38.27 15.22c-4.92 0-9.22-1.84-12.91-5.69-3.7-3.84-5.54-8.76-5.54-14.76 0-5.99 1.85-10.91 5.54-14.6a18.57 18.57 0 0 1 13.52-5.53c5.23 0 9.54 2.46 12.76 7.37v-6.91h8.3v53.5h-8.3v-20.3c-4 4.77-8.45 6.92-13.37 6.92zm-10.3-20.14a12.5 12.5 0 0 0 3.7 9.22c2.45 2.31 5.22 3.54 8.45 3.54 3.23 0 6-1.23 8.3-3.54 2.3-2.45 3.38-5.37 3.38-9.22 0-3.69-1.08-6.92-3.38-9.38a10.98 10.98 0 0 0-8.3-3.69c-3.23 0-6.15 1.24-8.46 3.7-2.46 2.45-3.69 5.53-3.69 9.37zM52.27 51.37v-7.53c9.84 0 39.81.15 51.96.15 26.44 0 52.88-.15 79.32-.15 9.69 0 17.83-6 20.3-15.22 1.53-5.7.76-11.07-3.23-15.68-3.54-4-7.85-5.69-13.07-5.39-5.07.47-9.68 4.93-10.46 10-.46 4 .78 7.07 4.16 9.22a8.2 8.2 0 0 0 8 .46 5.77 5.77 0 0 0 2.3-2c1.07-1.84 3.22-2.45 4.91-1.38 1.85.92 2.46 3.07 1.54 5.07-1.38 2.77-3.69 4.46-6.45 5.54-9.54 3.69-20.3-2.46-21.83-12.6a19.26 19.26 0 0 1 9.22-19.07c5.38-3.23 11.22-3.53 16.91-1.54 8.46 2.92 13.84 8.92 15.68 17.68 1.23 6.3 0 12.3-3.08 17.83-4.45 8-11.37 12.61-20.44 14.15-1.54.3-3.07.3-4.61.3-15.68.16-113.15.16-131.13.16z"/>
  <path fill="#198cff" d="M114.37 36.69H74.8v-6.3h68.64c4.98 0 8.12-2.23 9.33-6.67.7-2.78-.2-6.85-2.06-9.11-1.46-1.7-4.35-2.67-7.2-2.52-2.18.12-4.37 2.27-4.62 4.55a3.69 3.69 0 0 0 5.1 4.12c1.3-.43 2.63-.43 3.7.63 1.73 1.97.68 4.59-1.69 5.54-5.94 2.27-12.67-1.59-13.54-7.82-.68-4.43 1.65-9.2 5.64-11.63 3.05-1.77 8.08-1.97 11.85-.71 4.7 1.57 8.1 6.14 9.37 11.75.8 3.51.12 7.15-1.81 10.67-2.5 4.38-5.8 6.43-11.38 7.47-.75.16-1.38.18-2.84.18h-25.83l-.2-.01a16.8 16.8 0 0 0-2.88-.14zm113.26 31.07c2.3 4.62 2.18 9.16-.7 13.32-2.68 3.85-6.44 5.6-11.18 5.26-4.65-.35-8.5-4.1-9.18-8.71a5.57 5.57 0 0 1-.17-1.05c-.02-.26-.02-.45-.02-.92l.01-.16a3.31 3.31 0 0 1 3.3-2.84 3.3 3.3 0 0 1 3.28 2.77c.05.25.07.43.13.85a4.8 4.8 0 0 0 .27 1.26c.69 1.7 2.53 2.56 4.52 2.07a5.63 5.63 0 0 0 4.33-6.17 7.83 7.83 0 0 0-6.36-6.96 4 4 0 0 0-.78-.1 13.84 13.84 0 0 0-.94-.02c-8.39 0-19.89.02-49.34.07-29.46.06-40.96.08-49.35.08h-1.15v-7.07h100.3c5.79 0 10.26 2.97 13.03 8.32z"/>
</svg>
