<svg
width="18.000038"
height="18"
fill="none"
xmlns="http://www.w3.org/2000/svg"
>
<path
    fill="#1b1f23"
    fill-rule="evenodd"
    d="M 9.4833564,0.72682371 A 9.0193599,9.0193599 0 0 0 6.6295765,18.307523 c 0.45802,0.0705 0.61656,-0.19377 0.61656,-0.44039 v -1.67352 c -2.27246,0.42278 -2.85378,-0.54609 -3.04756,-1.05695 -0.0881,-0.26424 -0.52847,-1.05696 -0.91603,-1.26835 -0.31708,-0.17616 -0.7751,-0.59894 -0.0176,-0.59894 0.72225,-0.0176 1.2155,0.65179 1.39166,0.91603 0.81033,1.37404 2.11391,0.98649 2.62477,0.73986 0.0881,-0.58132 0.31709,-0.96887 0.58133,-1.19788 -2.00822,-0.22901 -4.10451,-1.00411 -4.10451,-4.4568293 0,-0.98649 0.35231,-1.79683 0.91602,-2.41338 -0.0881,-0.22901 -0.40516,-1.16266 0.0881,-2.39577 0,0 0.75749,-0.24663 2.48385,0.91603 a 8.3675702,8.3675702 0 0 1 4.5096805,0 c 1.72636,-1.16266 2.48385,-0.91603 2.48385,-0.91603 0.49324,1.23311 0.17616,2.16676 0.0881,2.39577 0.58132,0.61655 0.93364,1.42689 0.93364,2.41338 0,3.4703393 -2.11391,4.2278193 -4.12213,4.4568293 0.33471,0.28186 0.61656,0.82795 0.61656,1.67351 l -0.0176,2.46624 c 0,0.24662 0.17616,0.52847 0.61656,0.44039 A 9.0369759,9.0369759 0 0 0 9.4834264,0.72682371 Z"
    clip-rule="evenodd"
    id="path8970"
    style="stroke-width: 0.0176159"
/>
</svg>