      <svg
        xmlns="http://www.w3.org/2000/svg"
        width="16"
        height="16"
        fill="none"
      >
        <path
          fill="#0A66C2"
          d="M14.4.5H1.6C1 .5.5 1 .5 1.5v12.9c0 .5.5 1 1.1 1h12.8c.6 0 1.1-.5 1.1-1V1.6c0-.6-.5-1.1-1.1-1.1ZM4.9 13.3H2.7V6H5v7.2ZM4 5c-.7 0-1.3-.5-1.3-1.3 0-.7.5-1.3 1.3-1.3.7 0 1.3.6 1.3 1.3 0 .8-.6 1.3-1.3 1.3Zm9.4 8h-2.2V9.8c0-.8 0-2-1.2-2s-1.3 1-1.3 1.9V13H6.4v-7h2.1v1c.4-.6 1.1-1.2 2.2-1.2 2.2 0 2.7 1.5 2.7 3.4v3.9Z"
        />
      </svg>