<svg xmlns="http://www.w3.org/2000/svg" width="18" height="18" viewBox="0 0 16.88 16.87"><path fill="#2b90d9" d="M15.96 10.03c-.22 1.16-2.1 2.46-4.19 2.75-1.08.14-2.16.21-3.32.21-1.87-.14-3.32-.5-3.32-.5v.57c.3 1.8 1.88 1.95 3.4 2.03 1.51 0 2.81-.44 2.81-.44l.07 1.37s-1 .58-2.96.73c-1 .07-2.3-.08-3.82-.44-3.32-.86-3.9-4.4-3.97-7.94V5.48C.66 1.88 3.04.8 3.04.8 4.27.21 6.29 0 8.45 0h.07c2.1 0 4.2.22 5.35.8 0 0 2.38 1.08 2.38 4.7 0 0 .07 2.67-.29 4.54"/><path fill="#fff" d="M13.5 5.77v4.4h-1.8V5.93c0-.94-.36-1.37-1.08-1.37-.87 0-1.3.57-1.3 1.58v2.39H7.59V6.13c0-1-.44-1.58-1.23-1.58-.8 0-1.16.43-1.16 1.37v4.26H3.47v-4.4c0-.87.22-1.6.65-2.17.5-.5 1.16-.8 1.88-.8.94 0 1.59.36 2.02 1.09l.43.72.44-.72A2.24 2.24 0 0 1 10.9 2.8c.8 0 1.37.3 1.87.8.44.57.73 1.3.73 2.16"/></svg>