<!DOCTYPE svg PUBLIC "-//W3C//DTD SVG 1.1//EN" "http://www.w3.org/Graphics/SVG/1.1/DTD/svg11.dtd"><svg xmlns="http://www.w3.org/2000/svg" xml:space="preserve" width="32" height="32" fill-rule="evenodd" clip-rule="evenodd" image-rendering="optimizeQuality" shape-rendering="geometricPrecision" text-rendering="geometricPrecision"><g fill-rule="nonzero"><path fill="#04d4ac" d="M32.04 15.97a16.03 16.03 0 1 1-32.06 0 16.03 16.03 0 0 1 32.06 0zm-14.79 7c-1.43-.28-2.28-1.11-4.45-4.33-.72-1.08-.72-1.08-1.42-1.13-1.03-.07-.95-.25-.92 2.02.04 2.58.01 2.52 1.5 2.77.39.06.42.09.42.32 0 .26 0 .26-2.62.28-2.46.02-2.62.01-2.67-.14-.1-.29.05-.43.59-.53.61-.11.93-.36 1.01-.78.04-.16.05-2.32.03-4.8-.03-5.21.03-4.9-.93-5.11-.6-.13-.79-.27-.71-.51.06-.16.19-.17 2.92-.22 4.06-.08 4.82.05 5.9 1.01a2.8 2.8 0 0 1 .39 3.84c-.4.58-1.2 1.2-1.82 1.43-.29.11-.53.23-.53.27 0 .12.92 1.43 1.49 2.13 1.52 1.85 2.34 2.57 3.19 2.79.53.14.68.29.53.55-.16.27-.96.33-1.9.14zm-3.83-6.63c2-.82 2.15-3.57.25-4.38-.49-.21-.62-.22-1.85-.22-1.33 0-1.33 0-1.35 2.31-.02 1.27-.01 2.37.02 2.43.09.21 2.34.1 2.93-.14zm6.97-2.85c-1.55-.29-2.06-1.24-1.98-3.68.04-1.35.15-1.72.67-2.28.92-.99 3.2-.9 4.04.16.36.45.33.59-.17.74-.39.13-.39.13-.75-.23-.85-.82-2.32-.52-2.58.54-.13.47-.12 2.46.01 2.91.35 1.27 2.46 1.27 2.82 0 .22-.81.17-.87-.8-.92-.47-.02-.47-.02-.47-.41 0-.38 0-.38 1.12-.41 1.45-.03 1.43-.05 1.36 1.01-.09 1.33-.45 1.97-1.32 2.35-.57.24-1.35.33-1.95.22z"/><path fill="#fff" d="M17.25 22.97c-1.43-.28-2.28-1.11-4.45-4.33-.72-1.08-.72-1.08-1.42-1.13-1.03-.07-.95-.25-.92 2.02.04 2.58.01 2.52 1.5 2.77.39.06.42.09.42.32 0 .26 0 .26-2.62.28-2.46.02-2.62.01-2.67-.14-.1-.29.05-.43.59-.53.61-.11.93-.36 1.01-.78.04-.16.05-2.32.03-4.8-.03-5.21.03-4.9-.93-5.11-.6-.13-.79-.27-.71-.51.06-.16.19-.17 2.92-.22 4.06-.08 4.82.05 5.9 1.01a2.8 2.8 0 0 1 .39 3.84c-.4.58-1.2 1.2-1.82 1.43-.29.11-.53.23-.53.27 0 .12.92 1.43 1.49 2.13 1.52 1.85 2.34 2.57 3.19 2.79.53.14.68.29.53.55-.16.27-.96.33-1.9.14zm-3.83-6.63c2-.82 2.15-3.57.25-4.38-.49-.21-.62-.22-1.85-.22-1.33 0-1.33 0-1.35 2.31-.02 1.27-.01 2.37.02 2.43.09.21 2.34.1 2.93-.14zm6.97-2.85c-1.55-.29-2.06-1.24-1.98-3.68.04-1.35.15-1.72.67-2.28.92-.99 3.2-.9 4.04.16.36.45.33.59-.17.74-.39.13-.39.13-.75-.23-.85-.82-2.32-.52-2.58.54-.13.47-.12 2.46.01 2.91.35 1.27 2.46 1.27 2.82 0 .22-.81.17-.87-.8-.92-.47-.02-.47-.02-.47-.41 0-.38 0-.38 1.12-.41 1.45-.03 1.43-.05 1.36 1.01-.09 1.33-.45 1.97-1.32 2.35-.57.24-1.35.33-1.95.22zm0 0z"/></g></svg>