<svg xmlns="http://www.w3.org/2000/svg" viewBox="0 0 15 15"><path fill="#1185fe" d="M3.251 1.01c1.72 1.466 3.57 4.44 4.249 6.035.68-1.596 2.529-4.569 4.249-6.035C12.989-.048 15-.867 15 1.738c0 .52-.263 4.37-.417 4.995-.535 2.173-2.486 2.728-4.222 2.392 3.034.587 3.806 2.529 2.14 4.471-3.166 3.69-4.55-.925-4.905-2.108-.065-.216-.096-.318-.096-.232 0-.086-.03.016-.096.232-.355 1.183-1.739 5.797-4.904 2.108-1.667-1.942-.895-3.884 2.139-4.47C2.903 9.46.952 8.905.417 6.732.263 6.108 0 2.258 0 1.738 0-.867 2.01-.048 3.251 1.01Z"/></svg>