<svg xmlns="http://www.w3.org/2000/svg" width="910" height="500" fill="none"><circle cx="181" cy="246" r="117" fill="#FBF8F3"/><path fill="#85DBD9" d="M181 129c-64.5 0-117 52.5-117 117s52.5 117 117 117 117-52.5 117-117-52.5-117-117-117Zm59 31.6v4.8c0 .2 0 .3-.2.5l-2.3 2-.5.1c-.1 0-.3 0-.4-.2l-5.3-4.6-5-4.7-2.6-3.6-2.6-3.6a19.8 19.8 0 0 1-3.8-4.8 46 46 0 0 0-3.9-4.2l-3-5-5.8-3.1c13.6 2.8 26.3 8.1 37.7 15.4l-1 2.6-1.3 3.7-.2.3-1.3 1 1.5 3.4Zm-9 41.3a.7.7 0 0 1-.7 0l-4.7-2.3h-8.4a.7.7 0 0 1-.7-.4l-.9-3.8c0-.3 0-.6.3-.8l5.2-3.8h.7l3.8 1.7h.1l3 2.3c.2 0 .2.2.3.3l2.2 6c.1.3 0 .6-.2.8ZM206 156c0 .3-.3.6-4.5 1.6a.7.7 0 0 1-.6-.2 91.2 91.2 0 0 0-5.6-4.7c-.4 0-5.1-2.3-7.1-3.2a.7.7 0 0 1-.2-1.1l2.6-2.9 1.5-5.7-1.8-2.9h-10.8a.7.7 0 0 1-.7-.6V134c0-.2.1-.4.3-.5l2.6-1.8c3 0 6 .2 8.9.4l4.3.8s.2 0 .3.2a150.1 150.1 0 0 0 15.3 13.7c.1.2.2.5.1.7l-1.1 4.3c0 .2-.2.3-.4.4h-.6l-4.4-2c2.4 5.3 2.2 5.6 2 6Zm-35.3-24c0 .3-.1.4-.3.5l-3 2.4v2.9c0 .3-.4.6-.7.6h-4.9l-6.9-.7a.7.7 0 0 1-.6-.4l-.7-2v-.4c5.6-1.3 11.3-2.3 17-2.8Zm109.7 150.3-1.5-10.4c0-.2 0-.4.2-.5l4.9-7.2V254l5.1-11.6 5.3-10.6a114.9 114.9 0 0 1-11.4 65.8l-2.6-15.1Zm-102.2 77.8 1.8-4.3v-13l-3.6-3-7.5-4.7v-.1l-6.3-6.6-4.8-5.7h-1a.7.7 0 0 1-.7-.6l-.3-5.5-.6-3.8v-.3l1.7-5c0-.2.2-.3.4-.4l5-2.2-.3-2.9v-.2l.4-2.9-3.7-3.8-2.9 4a.7.7 0 0 1-1 .1l-5.2-4-6.7-2.5a.7.7 0 0 1-.4-.7v-3.6l-5.6-4.2-6-1.4-.3-.1-2.2-1.9-8.5-3.8H113l-.2-.1-7.6-3.4-6.3-3.4a.7.7 0 0 1-.3-.5l-.6-9.4-2.4-3.2-3.3-6.6v-.2l-1.3-7-4.6-2.9-.5 7.4 6.4 12a.7.7 0 0 1-1 .8l-3.7-2.8-5.3-4-2-2a.7.7 0 0 1-.3-.5V235l-1-2.8-.1-.3v-20.5l2.3-4 4-7.7 2.7-9c.1-.2.4-.4.7-.4h2.1v-10.9c0-.2 0-.4.2-.5l2.4-2.2 2.5-5.3V170l3.1-3.4 2.1-1.3 1.8-2.6c13-12.2 28.9-21.4 46.4-26.5v1.7l9 3 7-.7h.3l4.1 1.8 2.5-7.2.3-.3 2.6-1.9h.7c.2.1.3.3.4.6l.1 6.1 2 .7 6.8-.9c.3 0 .6.1.7.4.1.2 0 .5-.1.8l-5 5.5-.5.2h-6.3l1.3 2.9v.6c-.1.2-.3.3-.5.3l-5.7 1.1-4.6 1.3-5.8 3.8-3 6.1.3 4.5h2.7l.3.1 9.4 5.7.3.3 1.4 3.7v5.6l3.3 2.7 2.2-3.5v-5c0-.3.1-.5.3-.6l6-4 .1-4.9v-3c0-.3.1-.5.3-.6l1-.6 1-3 .3-4.2c0-.2.2-.4.4-.5l4.2-1.9h.7l6.4 4.5c.2 0 .3.2.3.4l1.4 6.5 3.2 1.7 4.8-3a.7.7 0 0 1 1 .5l2.4 8.3 9 6.5.1.2 3.9 5.7c.1.2.1.5 0 .8l-2.8 3.6-.2.2-3.1 1.9h-.4l-11.4-.9-7-1-5.8 5.9 9.3-3h.4l3.5.8c.3 0 .6.4.5.8l-1 4.9 7.8 4.5c.3.1.4.4.4.7 0 .2-.3.5-.6.5l-6.2 1.5-6.1 2.5h-.6l-3.4-1.5-4 1.4-.4 4.7c0 .3-.3.6-.7.6h-9.5l-3.8 3.7-3.4 3.9-2.3 5.7-.9 5.5c0 .3-.2.5-.5.6l-10.7 3-2.4 4.9-.8 4.8 1.8 7v.5l-2 4.4a.7.7 0 0 1-1 .2l-3.5-3.7-.2-.2-2.6-6.2-2.7-2.4-8.5-1.4-7.2 2.2h-.3l-5.3-.9-6.6 2.7-2 1.8v7.6l.8 8.2 6 6 3.9-.2 1.3-2.4v-.1l3.7-4.2.4-.2 6.2-1.3c.3 0 .5 0 .7.2.2.2.2.4.1.6l-1.6 5.6-3.7 8.3 9.1.7h.2l3.7 1.5c.3 0 .4.3.4.6l.4 7.7 5.8 4 4-2.2c.3-.1.6 0 .8 0l4 3.5 5.7-5.6.4-.2 7-1.2.5.1c.2.2.3.4.2.6l-.2 4.4 5.4-3.7c.2-.2.4-.2.5-.2l11 2.4 8 .7.4.2 9.8 7.6 11.4 3c.3.2.5.4.5.6l1.3 5.9v.5l-2.6 4.3h8.9l10 .1.4.3 6.4 6.7c.3.3.3.7 0 1l-4 4.9-.1.1-8.5 6.5-5.3 10-.2.3-9.8 5-.2.2-6.9.8-2.2 3-.2.1-7.3 4.4-5.4 2.9-.3.4c-5.1.7-10.4 1.1-15.8 1.1h-2.8Zm26.2-81v6a.7.7 0 0 1-.7.7.7.7 0 0 1-.6-.4c-1-2.5-1.5-4-1.5-4.3l-1-3.4c0-.2 0-.6.3-.7.2-.2.5-.2.8 0l2.4 1.6c.2 0 .3.3.3.5Zm-7.9-4.8c0 .2-.2.4-.4.5l-5 1.6h-.3a.7.7 0 0 1-.6-.3l-1.5-2.9v-.5c0-.2.2-.4.4-.4l3-1.2s.2-.1.4 0l2.3.4.4.3 1.3 2v.5ZM188 271c0 .3 0 .5-.2.7a14 14 0 0 1-3.2 2c-.6 0-4 .7-4 .7h-4.8a.7.7 0 0 1-.6-.5l-.6-1.3c-.1-.4 0-.8.4-1l5.2-2.1h4l3.4 1c.2 0 .4.3.4.5Zm-23.3-.2c-.2 0-.4 0-.6-.3l-2.7-3.2-3.8-2.7-4.7.8-5.4 1.5c-.3 0-.6 0-.8-.3l-2-2.3a.7.7 0 0 1 .2-1l3.2-2.8.4-.2h6.2l8.6 2.6h.2l5.4 3.3 4.7 2.9c.2.1.3.4.3.7-.1.3-.4.5-.7.5l-8.5.5Zm3 3.5c0 .3-.2.6-.5.7l-5.4 1.2h-.1l-.4-.1-3.4-2.4a.7.7 0 0 1 .4-1.3h4.4l4.6 1.3c.3 0 .5.3.5.6Z"/><circle cx="203" cy="192" r="5" fill="#8F81EE"/><circle cx="203" cy="192" r="5.5" fill="#6A5CD8" stroke="#fff"/><path stroke="url(#a)" stroke-width="2" d="M427 259H324.1a30 30 0 0 0-10 1.7L207.6 298"/><path stroke="url(#b)" stroke-width="2" d="M453 259h103.3c3.1 0 6.2.5 9.2 1.4L658 290"/><path stroke="url(#c)" stroke-width="2" d="M426 254H321.5a30 30 0 0 0-5 .4l-33 5.6"/><path stroke="url(#d)" stroke-width="2" d="M454 254h104.5c1.7 0 3.3.1 5 .4l33 5.6"/><path stroke="url(#e)" stroke-width="2" d="M426 250H319l-180.5 11"/><path stroke="url(#f)" stroke-width="2" d="M454 250h107l181 7"/><path stroke="url(#g)" stroke-width="2" d="M426 246H319l-153-14.5"/><path stroke="url(#h)" stroke-width="2" d="M454 246h107l135-11"/><path stroke="url(#i)" stroke-width="2" d="M426 242H322.6a30 30 0 0 1-7-.8L188 210.5"/><path stroke="url(#j)" stroke-width="2" d="M454 242h104.4a30 30 0 0 0 5.2-.5L685 220"/><path stroke="url(#k)" stroke-width="2" d="M426 237H325c-4 0-7.9-.8-11.6-2.4L226.5 198"/><path stroke="url(#l)" stroke-width="2" d="M454 237h101.4a30 30 0 0 0 10.8-2l76.3-29.5"/><path stroke="url(#m)" stroke-width="2" d="M426 232H321.6a10 10 0 0 1-4.9-1.3L208 169.5"/><path stroke="url(#n)" stroke-width="2" d="M454 232h103.6a10 10 0 0 0 6-2l72.4-55"/><circle cx="116" cy="205" r="5" fill="#8F81EE"/><circle cx="116" cy="205" r="5.5" fill="#6A5CD8" stroke="#fff"/><circle cx="166" cy="232" r="5" fill="#8F81EE"/><circle cx="166" cy="232" r="5.5" fill="#6A5CD8" stroke="#fff"/><circle cx="138" cy="262" r="5" fill="#8F81EE"/><circle cx="138" cy="262" r="5.5" fill="#6A5CD8" stroke="#fff"/><circle cx="208" cy="298" r="5" fill="#8F81EE"/><circle cx="208" cy="298" r="5.5" fill="#6A5CD8" stroke="#fff"/><circle cx="184" cy="320" r="5" fill="#8F81EE"/><circle cx="184" cy="320" r="5.5" fill="#6A5CD8" stroke="#fff"/><circle cx="232" cy="328" r="5" fill="#8F81EE"/><circle cx="232" cy="328" r="5.5" fill="#6A5CD8" stroke="#fff"/><circle cx="243" cy="313" r="5" fill="#8F81EE"/><circle cx="243" cy="313" r="5.5" fill="#6A5CD8" stroke="#fff"/><circle cx="209" cy="171" r="5" fill="#8F81EE"/><circle cx="209" cy="171" r="5.5" fill="#6A5CD8" stroke="#fff"/><circle cx="227" cy="198" r="5" fill="#8F81EE"/><circle cx="227" cy="198" r="5.5" fill="#6A5CD8" stroke="#fff"/><circle cx="188" cy="211" r="5" fill="#8F81EE"/><circle cx="188" cy="211" r="5.5" fill="#6A5CD8" stroke="#fff"/><circle cx="154" cy="205" r="5" fill="#8F81EE"/><circle cx="154" cy="205" r="5.5" fill="#6A5CD8" stroke="#fff"/><circle cx="131" cy="220" r="5" fill="#8F81EE"/><circle cx="131" cy="220" r="5.5" fill="#6A5CD8" stroke="#fff"/><circle cx="146" cy="230" r="5" fill="#8F81EE"/><circle cx="146" cy="230" r="5.5" fill="#6A5CD8" stroke="#fff"/><circle cx="171" cy="215" r="5" fill="#8F81EE"/><circle cx="171" cy="215" r="5.5" fill="#6A5CD8" stroke="#fff"/><circle cx="161" cy="175" r="5" fill="#8F81EE"/><circle cx="161" cy="175" r="5.5" fill="#6A5CD8" stroke="#fff"/><circle cx="283" cy="260" r="5" fill="#8F81EE"/><circle cx="283" cy="260" r="5.5" fill="#6A5CD8" stroke="#fff"/><circle cx="438" cy="246" r="75" fill="url(#o)"/><circle cx="438" cy="246" r="77" stroke="#fff" stroke-opacity=".5" stroke-width="4"/><path fill="#fff" d="M407.1 258.4c-1 0-1.9-.2-2.6-.6-.8-.4-1.4-1-1.8-1.7a5 5 0 0 1-.7-2.6c0-1 .2-2 .7-2.7.4-.7 1-1.3 1.8-1.7.8-.4 1.6-.6 2.6-.6s1.9.2 2.7.6c.8.4 1.4 1 1.8 1.7.4.8.7 1.6.7 2.6v.1a5 5 0 0 1-.7 2.6c-.4.8-1 1.3-1.8 1.7-.8.4-1.7.6-2.7.6Zm0-1.8a3 3 0 0 0 2.2-.8c.6-.5.9-1.3.9-2.3a3 3 0 0 0-.8-2.3 3 3 0 0 0-2.3-.9 3 3 0 0 0-2.2.9 3 3 0 0 0-.8 2.3c0 1 .3 1.8.8 2.3a3 3 0 0 0 2.2.8ZM414.8 262v-13.2h2v1.4h.4l1.1-1.2c.6-.3 1.3-.5 2.3-.5.8 0 1.6.2 2.2.6.7.4 1.3 1 1.7 1.7.4.7.7 1.6.7 2.6v.1c0 1-.3 2-.7 2.7-.4.7-1 1.3-1.6 1.6-.7.4-1.5.6-2.3.6a5 5 0 0 1-1.7-.2l-1-.6-.7-.7h-.3v5.1h-2Zm5.2-5.3a3 3 0 0 0 2.2-.8c.6-.6.9-1.4.9-2.4s-.3-1.8-1-2.4a3 3 0 0 0-2.1-.8c-1 0-1.6.3-2.2.8-.6.6-.9 1.4-.9 2.4s.3 1.8.9 2.4c.5.5 1.3.8 2.2.8ZM432.3 258.4c-1 0-2-.2-2.7-.6a4.5 4.5 0 0 1-2.4-4.3c0-1 .2-1.9.7-2.6.4-.8 1-1.3 1.7-1.7.7-.5 1.6-.7 2.6-.7s1.8.2 2.5.7c.7.4 1.3 1 1.7 1.6.4.8.6 1.6.6 2.6v.6h-7.7c0 .8.4 1.5 1 2a3 3 0 0 0 2 .7c.8 0 1.4-.2 1.7-.5.4-.3.8-.7 1-1.2l1.7.9-.8 1.1-1.4 1c-.6.3-1.3.4-2.2.4Zm-3-5.8h5.6c-.1-.7-.4-1.3-.9-1.7-.4-.4-1-.6-1.8-.6s-1.5.2-2 .6c-.4.4-.7 1-.8 1.7ZM439.4 258.1v-9.3h2v1.4h.4a3 3 0 0 1 1-1c.5-.4 1.2-.5 2.2-.5a4 4 0 0 1 2 .4c.5.4 1 .8 1.3 1.4.4.6.5 1.3.5 2.1v5.5h-2v-5.3c0-.9-.2-1.5-.7-1.9-.4-.4-1-.6-1.7-.6-.9 0-1.6.3-2.1.9-.5.5-.8 1.1-.8 2.2v4.7h-2ZM454.9 258.4a5 5 0 0 1-2-.3c-.5-.3-1-.6-1.3-1-.3-.5-.4-1-.4-1.7 0-.6.1-1.2.4-1.6.4-.4.8-.6 1.4-.8.6-.3 1.2-.4 2-.4h3v-.6c0-.5-.2-1-.6-1.3-.3-.3-.8-.5-1.6-.5-.7 0-1.2.2-1.6.5-.4.3-.6.7-.7 1.2l-2-.6c.2-.5.4-1 .8-1.4.4-.4.8-.7 1.4-1 .6-.2 1.3-.4 2.2-.4 1.2 0 2.3.4 3 1 .7.6 1 1.5 1 2.7v6h-1.6V256.8h-.3l-.5.7c-.2.2-.6.5-1 .6-.4.2-1 .3-1.6.3Zm.3-1.6a3 3 0 0 0 2-.7c.5-.5.8-1 .8-1.9v-.2h-3c-.5 0-1 .1-1.3.4a1 1 0 0 0-.5 1c0 .4.2.7.6 1 .3.3.8.4 1.4.4ZM471 262v-5.1h-.4a3 3 0 0 1-1.7 1.3l-1.6.2c-.9 0-1.6-.2-2.3-.6-.7-.3-1.3-.9-1.7-1.6-.4-.7-.6-1.6-.6-2.7s.2-2 .6-2.7a4.4 4.4 0 0 1 4-2.3c1 0 1.7.2 2.2.5.5.4.9.8 1.1 1.2h.4v-1.4h2V262h-2Zm-3.1-5.3a3 3 0 0 0 2.2-.8c.6-.6.8-1.4.8-2.4s-.2-1.8-.8-2.4a3 3 0 0 0-2.2-.8c-1 0-1.7.3-2.3.8-.5.6-.8 1.4-.8 2.4s.3 1.8.8 2.4c.6.5 1.4.8 2.3.8ZM451 230.2a1 1 0 0 0-1.5-1.3l1.5 1.3Zm-35.8 5.5h31v-2h-31v2Zm31 0c2.5 0 4.5-.7 6-1.8a6 6 0 0 0 2.3-4.8h-2a4 4 0 0 1-1.6 3.2c-1 .8-2.6 1.4-4.6 1.4v2Zm8.3-6.6c0-1-.3-2.6-1.1-3.8a5 5 0 0 0-4.3-2.3v2a3 3 0 0 1 2.6 1.4c.5.8.8 1.9.8 2.7h2ZM449 223c-2 0-3.4.8-4.3 2-.8 1-1.1 2.2-1.1 3h2c0-.4.2-1.2.7-1.8.5-.7 1.3-1.2 2.7-1.2v-2Zm-5.4 5c0 1.6 1 3 2.5 3.6 1.5.6 3.4.3 4.8-1.4l-1.5-1.3c-1 1-1.9 1.1-2.5.9a2 2 0 0 1-1.3-1.8h-2Z"/><path stroke="#fff" stroke-linecap="round" stroke-width="2" d="M421.1 231.1h15.6c2.2 0 3.6-1.2 3.6-2.8 0-1-.5-2.7-2.2-2.7a2.1 2.1 0 0 0-2.2 2c0 1 1.1 2 2.2 1.4M430.7 238.2h23.6c2.2 0 3.5 1.3 3.5 3 0 1-.4 2.6-2.2 2.6a2.1 2.1 0 0 1-2.1-2c0-.4 0-.6.2-.9"/><ellipse cx="438" cy="328.5" fill="url(#p)" rx="32" ry="4.5"/><rect width="224" height="234" x="585" y="129" fill="#241050" rx="12"/><path stroke="#584DAE" stroke-dasharray="2 2" stroke-linecap="round" d="M597.5 140.5h199M597.5 155.5h199M597.5 170.5h199M597.5 185.5h199"/><path stroke="#584DAE" stroke-linecap="round" d="M597.5 200.5h199"/><g clip-path="url(#q)"><path stroke="#A9B0BB" stroke-width="2" d="M602 151.6v26.2"/><g clip-path="url(#r)"><path fill="#DEDAFB" d="M596.9 155.2h10v19.7h-10z"/><path fill="#6A5CD8" d="M595.6 155.2h12.5v2h-12.5v-2ZM595.6 173.2h12.5v2h-12.5v-2Z"/></g><path fill="#584DAE" d="M597 153.2h10v4h-10v-4Z"/></g><g clip-path="url(#s)"><path stroke="#A9B0BB" stroke-width="2" d="M617.8 147.1V176"/><g clip-path="url(#t)"><path fill="#DEDAFB" d="M612.7 149.6h10v19.7h-10z"/><path fill="#6A5CD8" d="M611.4 149.6H624v2h-12.5v-2ZM611.4 167.6H624v2h-12.5v-2Z"/></g><path fill="#584DAE" d="M612.8 147.6h10v4h-10v-4Z"/></g><g clip-path="url(#u)"><path stroke="#A9B0BB" stroke-width="2" d="M633.7 146v27"/><g clip-path="url(#v)"><path fill="#DEDAFB" d="M628.5 149.6h10v19.7h-10z"/><path fill="#6A5CD8" d="M627.3 149.6h12.5v2h-12.5v-2ZM627.3 167.6h12.5v2h-12.5v-2Z"/></g><path fill="#584DAE" d="M628.7 147.6h10v4h-10v-4Z"/></g><g clip-path="url(#w)"><path stroke="#A9B0BB" stroke-width="2" d="M649.5 144.3v28.8"/><g clip-path="url(#x)"><path fill="#DEDAFB" d="M644.4 146.8h10v19.7h-10z"/><path fill="#6A5CD8" d="M643.1 146.8h12.5v2h-12.5v-2ZM643.1 164.8h12.5v2h-12.5v-2Z"/></g><path fill="#584DAE" d="M644.5 144.8h10v4h-10v-4Z"/></g><g clip-path="url(#y)"><path stroke="#A9B0BB" stroke-width="2" d="M665.3 148.3v30"/><g clip-path="url(#z)"><path fill="#DEDAFB" d="M660.2 149.6h10v19.7h-10z"/><path fill="#6A5CD8" d="M659 149.6h12.4v2H659v-2ZM659 167.6h12.4v2H659v-2Z"/></g><path fill="#584DAE" d="M660.3 147.6h10v4h-10v-4Z"/></g><g clip-path="url(#A)"><path stroke="#A9B0BB" stroke-width="2" d="M681.2 150.8V178"/><g clip-path="url(#B)"><path fill="#DEDAFB" d="M676 155.2h10v19.7h-10z"/><path fill="#6A5CD8" d="M674.8 155.2h12.5v2h-12.5v-2ZM674.8 173.2h12.5v2h-12.5v-2Z"/></g><path fill="#584DAE" d="M676.2 153.2h10v4h-10v-4Z"/></g><g clip-path="url(#C)"><path stroke="#A9B0BB" stroke-width="2" d="M697 155.8v29"/><g clip-path="url(#D)"><path fill="#DEDAFB" d="M691.9 160.7h10v19.7h-10z"/><path fill="#6A5CD8" d="M690.6 160.7h12.5v2h-12.5v-2ZM690.6 178.7h12.5v2h-12.5v-2Z"/></g><path fill="#584DAE" d="M692 158.7h10v4h-10v-4Z"/></g><g clip-path="url(#E)"><path stroke="#A9B0BB" stroke-width="2" d="M712.8 160.8V184"/><g clip-path="url(#F)"><path fill="#DEDAFB" d="M707.7 166.4h10v14h-10z"/><path fill="#6A5CD8" d="M706.4 166.4H719v2h-12.5v-2ZM706.4 178.4H719v2h-12.5v-2Z"/></g><path fill="#584DAE" d="M707.8 161.4h10v4h-10v-4Z"/></g><g clip-path="url(#G)"><path stroke="#A9B0BB" stroke-width="2" d="M728.7 156.6v25.7"/><g clip-path="url(#H)"><path fill="#DEDAFB" d="M723.5 160.7h10v19.7h-10z"/><path fill="#6A5CD8" d="M722.3 160.7h12.5v2h-12.5v-2ZM722.3 178.7h12.5v2h-12.5v-2Z"/></g><path fill="#584DAE" d="M723.7 158.7h10v4h-10v-4Z"/></g><g clip-path="url(#I)"><path stroke="#A9B0BB" stroke-width="2" d="M744.5 169.5v26.2"/><g clip-path="url(#J)"><path fill="#DEDAFB" d="M739.4 174.7h10v19.7h-10z"/><path fill="#6A5CD8" d="M738.1 174.7h12.5v2h-12.5v-2ZM738.1 192.7h12.5v2h-12.5v-2Z"/></g><path fill="#584DAE" d="M739.5 172.7h10v4h-10v-4Z"/></g><g clip-path="url(#K)"><path stroke="#A9B0BB" stroke-width="2" d="M760.3 162.8v28.7"/><g clip-path="url(#L)"><path fill="#DEDAFB" d="M755.2 169.1h10v19.7h-10z"/><path fill="#6A5CD8" d="M754 169.1h12.4v2H754v-2ZM754 186.1h12.4v2H754v-2Z"/></g><path fill="#584DAE" d="M755.3 167.1h10v4h-10v-4Z"/></g><g clip-path="url(#M)"><path stroke="#A9B0BB" stroke-width="2" d="M776.2 176.4v19.9"/><g clip-path="url(#N)"><path fill="#DEDAFB" d="M771 180.3h10V200h-10z"/><path fill="#6A5CD8" d="M769.8 180.3h12.5v2h-12.5v-2ZM769.8 198.3h12.5v2h-12.5v-2Z"/></g><path fill="#584DAE" d="M771.2 178.3h10v4h-10v-4Z"/></g><g clip-path="url(#O)"><path stroke="#A9B0BB" stroke-width="2" d="M792 173.4v22.9"/><g clip-path="url(#P)"><path fill="#DEDAFB" d="M786.9 180.3h10V200h-10z"/><path fill="#6A5CD8" d="M785.6 180.3h12.5v2h-12.5v-2ZM785.6 198.3h12.5v2h-12.5v-2Z"/></g><path fill="#584DAE" d="M787 178.3h10v4h-10v-4Z"/></g><path stroke="#584DAE" stroke-dasharray="2 2" stroke-linecap="round" d="M597.5 215.5h199M597.5 230.5h199M597.5 245.5h199M597.5 260.5h199"/><path stroke="#584DAE" stroke-linecap="round" d="M597.5 275.5h199"/><g clip-path="url(#Q)"><path fill="url(#R)" d="M618 264h10v12h-10v-12Z"/><path fill="url(#S)" d="M631.3 232h10v44h-10v-44Z"/><path fill="url(#T)" d="M657.8 256h10v20h-10v-20Z"/><path fill="url(#U)" d="M684.4 240h10v36h-10v-36Z"/><path fill="url(#V)" d="M697.6 264h10v12h-10v-12Z"/><path fill="url(#W)" d="M711 256h10v20h-10v-20Z"/><path fill="url(#X)" d="M724.2 264h10v12h-10v-12Z"/><path fill="url(#Y)" d="M737.5 248h10v28h-10v-28Z"/><path fill="url(#Z)" d="M750.7 232h10v44h-10v-44Z"/><path fill="url(#aa)" d="M764 272h10v4h-10v-4Z"/></g><path stroke="#584DAE" stroke-dasharray="2 2" stroke-linecap="round" d="M597.5 290.5h191M597.5 305.5h191M597.5 320.5h191M597.5 335.5h191"/><path stroke="#584DAE" stroke-linecap="round" d="M597.5 350.5h191"/><mask id="ab" width="200" height="80" x="597" y="291" maskUnits="userSpaceOnUse" style="mask-type:alpha"><path fill="#D9D9D9" d="M597 291h200v80H597z"/></mask><g mask="url(#ab)"><path fill="url(#ac)" d="m722.7 312.5-1 1.7h-.1l1.1-1.7ZM637 331.2l.7-1.9.2.1-.9 1.8Zm-40.7 6a2 2 0 0 1 1.4-3.7l-1.4 3.7Zm16-4.5.6-2-.6 2Zm1 .3-.7 1.9.7-1.9Zm3.7 2-1 1.7 1-1.7Zm10.3-1.4 1.5 1.3-1.5-1.3Zm9.4-2.5.7-1.9-.7 2Zm-9.3 2.3-1.5-1.3 1.5 1.3Zm18-4 1.8 1.1-1.7-1Zm-7.5 2.3 1-1.8-1 1.8Zm8.5-3.7-1.7-1 1.7 1Zm9.9-1.8-1.3-1.5 1.3 1.5Zm11-3.5 1.8.9-1.8-.9Zm1.3-2.8 1.8 1-1.8-1Zm16.8-2.7-1.4-1.4 1.4 1.4Zm-6.3 1.3.7-1.8-.7 1.8Zm7-2 1.4 1.5-1.5-1.4Zm10.4-1.4-1.3-1.5 1.3 1.5Zm3.8-3.2 1.6 1.2-1.6-1.2Zm-1 1 1.3 1.5-1.3-1.6Zm2.3-2.7L700 309l1.6 1.2Zm6.9 1.1-1.8.9 1.8-.9Zm11.6-.5 1.2-1.7-1.2 1.7Zm5.2 3.4 1-1.7-1 1.7Zm17.5.3-.8-1.8.8 1.8Zm-5.2-1 1.4-1.4-1.4 1.5Zm8.9-1L745 311l1.4 1.5Zm2.8-2.5 1.3 1.5-1.3-1.5Zm4.8-.8.7-1.8-.7 1.8Zm5-1.7 1.6 1.3-1.6-1.3Zm24.4-3.1 1.6 1.2-1.6-1.2ZM658 324.9l1.3 1.6-1.3-1.6Zm140.5-25-3.6 3.7-2.9-2.8 3.7-3.7 2.8 2.8Zm-13.3 5.7-1.7 2-3-2.4 1.6-2 3 2.4Zm-24.4 3.2-.3.3-3.1-2.5.2-.3 3.2 2.5Zm-7.2 2.3h-.3l1.3-3.8h.3l-1.3 3.8Zm-3 .4-2.7 2.5-2.7-3 2.8-2.5 2.7 3Zm-5.2 4.1-1.7.8-1.6-3.7 1.7-.7 1.6 3.6Zm-9.1-.6-.2-.2 2.8-2.8.2.1-2.8 2.9Zm-12 .9-2.5-1.7 2-3.4 2.7 1.7-2.1 3.4Zm-2.6-1.7-2.6-1.8 2.3-3.3 2.5 1.8-2.2 3.3Zm-15-2-.1-.5 3.6-1.6.2.4-3.6 1.7Zm-3.4-.9-1.3 1.8-3.2-2.4 1.3-1.7 3.2 2.3Zm-2.6 3.1-2.9 2.3-2.5-3.1 2.9-2.3 2.5 3.1Zm-13.1 3.6-.7.6-2.8-2.8.6-.6 2.9 2.8Zm-9 2.4-1.8-.7 1.4-3.7 1.7.7-1.4 3.7Zm-8 .4-1.4 2.8-3.6-1.7 1.3-2.8 3.6 1.7Zm-11.3 5.7-1.7 1.3-2.5-3.1 1.7-1.4 2.5 3.2Zm-11 2.5-1 1.5-3.4-2 .9-1.6 3.4 2.1Zm-11.1 4.5-1-.5 1.8-3.6 1 .5-1.8 3.6Zm-.8-.4-.2-.1 1.3-3.8.3.1-1.4 3.8Zm-7.4 1.7-.1.1-3-2.7.1-.1 3 2.7Zm-13 2-2-1.3 2-3.4 2.2 1.2-2.1 3.4Zm-3.3-1.9-1-.3 1.3-3.8 1 .3-1.3 3.8Zm-14.6 3-1.7-.7 1.4-3.7 1.7.6-1.4 3.8Zm9-2.1a8.4 8.4 0 0 1-9 2l1.4-3.7c1.7.6 3.6.2 4.8-1.1l2.9 2.8Zm4.7-1.2c-1.7-.5-3.4 0-4.6 1.2l-3-2.8a8.4 8.4 0 0 1 8.8-2.2l-1.2 3.8Zm2.2.9a6 6 0 0 0-1.3-.6l1.3-3.8c.7.2 1.4.6 2 1l-2 3.4Zm9.6 2.5c-2.5.6-5.3.1-7.5-1.3l2-3.4c1.4.9 3 1.1 4.6.8l1 3.9Zm5.3-3.1a10.1 10.1 0 0 1-5.3 3l-.9-3.8c1.3-.3 2.4-1 3.2-1.9l3 2.7Zm7.3-2c-2.6-.8-5.4-.1-7.2 1.9l-3-2.7c3-3.2 7.4-4.3 11.5-2.9l-1.3 3.8Zm11.1-2.4a7.8 7.8 0 0 1-10.1 3l1.7-3.6c1.8.9 4 .2 5-1.5l3.4 2.1Zm3.6-2.2a2 2 0 0 0-2.7.7l-3.4-2a6 6 0 0 1 8-2.2l-1.9 3.5Zm6.7-.5a6 6 0 0 1-6.7.5l2-3.5a2 2 0 0 0 2.2-.1l2.5 3Zm11.6-4.2c-1.4 3-5 4.2-8 2.7l1.9-3.6c.9.5 2 0 2.5-.8l3.6 1.7Zm6.5-4.4c-1.9-1-4.2-.3-5.2 1.6l-3.6-1.7c2-4 7-5.6 10.8-3.4l-2 3.5Zm1.1.5-1.1-.5 2-3.4.5.2-1.4 3.7Zm10.1-1a8 8 0 0 1-8.4 1.7l1.4-3.7a4 4 0 0 0 4.2-1l2.8 3Zm3.8-1.2c-1-.5-2.3-.3-3.1.5l-2.9-2.8c2-2 5.1-2.6 7.7-1.3l-1.7 3.6Zm7.1-.8c-2 1.6-4.8 2-7.1.8l1.7-3.6c1 .5 2.1.3 3-.3l2.4 3.1Zm4.2-3.6c-.4.5-.8 1-1.3 1.3l-2.5-3.1.6-.6 3.2 2.4Zm4.6-1.4a2 2 0 0 0-3.3-.4L700 309a6 6 0 0 1 10.1 1l-3.6 1.7Zm10.1 1.2a5.7 5.7 0 0 1-10-.7l3.7-1.7a1.7 1.7 0 0 0 3 .2l3.3 2.2Zm2.4-.5c-.8-.5-1.8-.3-2.4.5l-3.3-2.2a5.7 5.7 0 0 1 8-1.6l-2.3 3.3Zm13.4 2.5a6.5 6.5 0 0 1-8.1 1l2-3.4c1.1.6 2.4.4 3.2-.4l2.9 2.8Zm3.6 0c-1-1-2.6-1-3.6 0l-2.9-2.8a6.5 6.5 0 0 1 9.3-.1l-2.8 2.8Zm7.6 1.5c-2.5 1-5.5.5-7.4-1.4l2.8-2.9c.8.8 2 1 3 .6l1.6 3.7Zm4.2-2.4c-.8.7-1.6 1.2-2.5 1.6l-1.6-3.6 1.4-1 2.7 3Zm5.4-3c-1-.3-2-.1-2.6.5l-2.7-3a6.6 6.6 0 0 1 6.6-1.2l-1.3 3.7Zm7.2-2a6.2 6.2 0 0 1-7 2.1l1.4-3.7c.9.3 1.9 0 2.5-.8l3.1 2.5Zm3.5 0a2 2 0 0 0-3.2-.2l-3.2-2.5a6 6 0 0 1 9.9.7l-3.5 2Zm9.8.8a6 6 0 0 1-9.8-.8l3.5-2a2 2 0 0 0 3.2.3l3 2.5Zm2.4-.5a2 2 0 0 0-2.4.5l-3.1-2.5a6 6 0 0 1 7.3-1.6l-1.8 3.6Zm7.3-1.6a6 6 0 0 1-7.3 1.6l1.8-3.6a2 2 0 0 0 2.4-.5l3.1 2.5Zm4.4-2.7c-1-.4-2-.2-2.7.6l-3.1-2.5c1.7-2.2 4.8-3 7.4-1.8l-1.6 3.7Zm-126.6 21.3c-.7-.4-1.5-.3-2 .2l-2.5-3.2a5.9 5.9 0 0 1 6.3-.6l-1.8 3.6Zm133.6-22.7a6.3 6.3 0 0 1-7 1.4l1.6-3.7c.8.3 1.9.1 2.5-.5l2.9 2.8Z"/></g><path fill="#7E0023" d="M789 291h8v10h-8z"/><path fill="#8F3F97" d="M789 301h8v10h-8z"/><path fill="red" d="M789 311h8v10h-8z"/><path fill="#FF7E00" d="M789 321h8v10h-8z"/><path fill="#FF0" d="M789 331h8v10h-8z"/><path fill="#00E400" d="M789 341h8v10h-8z"/><defs><clipPath id="q"><path fill="#fff" d="M597 141h10v60h-10z"/></clipPath><clipPath id="r"><path fill="#fff" d="M596.9 155.2h10v19.7h-10z"/></clipPath><clipPath id="s"><path fill="#fff" d="M612.8 141h10v60h-10z"/></clipPath><clipPath id="t"><path fill="#fff" d="M612.7 149.6h10v19.7h-10z"/></clipPath><clipPath id="u"><path fill="#fff" d="M628.7 141h10v60h-10z"/></clipPath><clipPath id="v"><path fill="#fff" d="M628.5 149.6h10v19.7h-10z"/></clipPath><clipPath id="w"><path fill="#fff" d="M644.5 141h10v60h-10z"/></clipPath><clipPath id="x"><path fill="#fff" d="M644.4 146.8h10v19.7h-10z"/></clipPath><clipPath id="y"><path fill="#fff" d="M660.3 141h10v60h-10z"/></clipPath><clipPath id="z"><path fill="#fff" d="M660.2 149.6h10v19.7h-10z"/></clipPath><clipPath id="A"><path fill="#fff" d="M676.2 141h10v60h-10z"/></clipPath><clipPath id="B"><path fill="#fff" d="M676 155.2h10v19.7h-10z"/></clipPath><clipPath id="C"><path fill="#fff" d="M692 141h10v60h-10z"/></clipPath><clipPath id="D"><path fill="#fff" d="M691.9 160.7h10v19.7h-10z"/></clipPath><clipPath id="E"><path fill="#fff" d="M707.8 141h10v60h-10z"/></clipPath><clipPath id="F"><path fill="#fff" d="M707.7 166.4h10v14h-10z"/></clipPath><clipPath id="G"><path fill="#fff" d="M723.7 141h10v60h-10z"/></clipPath><clipPath id="H"><path fill="#fff" d="M723.5 160.7h10v19.7h-10z"/></clipPath><clipPath id="I"><path fill="#fff" d="M739.5 141h10v60h-10z"/></clipPath><clipPath id="J"><path fill="#fff" d="M739.4 174.7h10v19.7h-10z"/></clipPath><clipPath id="K"><path fill="#fff" d="M755.3 141h10v60h-10z"/></clipPath><clipPath id="L"><path fill="#fff" d="M755.2 169.1h10v19.7h-10z"/></clipPath><clipPath id="M"><path fill="#fff" d="M771.2 141h10v60h-10z"/></clipPath><clipPath id="N"><path fill="#fff" d="M771 180.3h10V200h-10z"/></clipPath><clipPath id="O"><path fill="#fff" d="M787 141h10v60h-10z"/></clipPath><clipPath id="P"><path fill="#fff" d="M786.9 180.3h10V200h-10z"/></clipPath><clipPath id="Q"><path fill="#fff" d="M597 216h200v60H597z"/></clipPath><linearGradient id="a" x1="319.5" x2="284" y1="221" y2="221" gradientUnits="userSpaceOnUse"><stop stop-color="#A497FD"/><stop offset="1" stop-color="#A497FD" stop-opacity=".2"/></linearGradient><linearGradient id="b" x1="560.5" x2="596" y1="221" y2="221" gradientUnits="userSpaceOnUse"><stop stop-color="#198CFF"/><stop offset="1" stop-color="#198CFF" stop-opacity=".2"/></linearGradient><linearGradient id="c" x1="319" x2="222" y1="215" y2="215" gradientUnits="userSpaceOnUse"><stop stop-color="#A497FD"/><stop offset="1" stop-color="#A497FD" stop-opacity=".2"/></linearGradient><linearGradient id="d" x1="561" x2="658" y1="215" y2="215" gradientUnits="userSpaceOnUse"><stop stop-color="#198CFF"/><stop offset="1" stop-color="#198CFF" stop-opacity=".2"/></linearGradient><linearGradient id="e" x1="319" x2="138" y1="228.5" y2="228.5" gradientUnits="userSpaceOnUse"><stop stop-color="#A497FD"/><stop offset="1" stop-color="#A497FD" stop-opacity="0"/></linearGradient><linearGradient id="f" x1="561" x2="742" y1="228.5" y2="228.5" gradientUnits="userSpaceOnUse"><stop stop-color="#198CFF"/><stop offset="1" stop-color="#198CFF" stop-opacity="0"/></linearGradient><linearGradient id="g" x1="319" x2="184" y1="212.5" y2="212.5" gradientUnits="userSpaceOnUse"><stop stop-color="#A497FD"/><stop offset="1" stop-color="#A497FD" stop-opacity=".2"/></linearGradient><linearGradient id="h" x1="561" x2="696" y1="212.5" y2="212.5" gradientUnits="userSpaceOnUse"><stop stop-color="#198CFF"/><stop offset="1" stop-color="#198CFF" stop-opacity=".2"/></linearGradient><linearGradient id="i" x1="319" x2="195" y1="207.5" y2="207.5" gradientUnits="userSpaceOnUse"><stop stop-color="#A497FD"/><stop offset="1" stop-color="#A497FD" stop-opacity=".2"/></linearGradient><linearGradient id="j" x1="561" x2="685" y1="207.5" y2="207.5" gradientUnits="userSpaceOnUse"><stop stop-color="#198CFF"/><stop offset="1" stop-color="#198CFF" stop-opacity=".2"/></linearGradient><linearGradient id="k" x1="319.5" x2="238" y1="202.5" y2="202.5" gradientUnits="userSpaceOnUse"><stop stop-color="#A497FD"/><stop offset="1" stop-color="#A497FD" stop-opacity=".2"/></linearGradient><linearGradient id="l" x1="560.5" x2="642" y1="202.5" y2="202.5" gradientUnits="userSpaceOnUse"><stop stop-color="#198CFF"/><stop offset="1" stop-color="#198CFF" stop-opacity=".2"/></linearGradient><linearGradient id="m" x1="318.5" x2="244" y1="268" y2="268" gradientUnits="userSpaceOnUse"><stop stop-color="#A497FD"/><stop offset="1" stop-color="#A497FD" stop-opacity=".2"/></linearGradient><linearGradient id="n" x1="561.5" x2="636" y1="268" y2="268" gradientUnits="userSpaceOnUse"><stop stop-color="#198CFF"/><stop offset="1" stop-color="#198CFF" stop-opacity=".2"/></linearGradient><linearGradient id="R" x1="623" x2="623" y1="261.2" y2="276" gradientUnits="userSpaceOnUse"><stop stop-color="#7867EB"/><stop offset="1" stop-color="#7867EB" stop-opacity=".5"/></linearGradient><linearGradient id="S" x1="636.3" x2="636.3" y1="228.9" y2="276" gradientUnits="userSpaceOnUse"><stop stop-color="#7867EB"/><stop offset="1" stop-color="#7867EB" stop-opacity=".5"/></linearGradient><linearGradient id="T" x1="662.8" x2="662.8" y1="252.2" y2="276" gradientUnits="userSpaceOnUse"><stop stop-color="#7867EB"/><stop offset="1" stop-color="#7867EB" stop-opacity=".5"/></linearGradient><linearGradient id="U" x1="689.4" x2="689.4" y1="236.1" y2="276" gradientUnits="userSpaceOnUse"><stop stop-color="#7867EB"/><stop offset="1" stop-color="#7867EB" stop-opacity=".5"/></linearGradient><linearGradient id="V" x1="702.6" x2="702.6" y1="261.2" y2="276" gradientUnits="userSpaceOnUse"><stop stop-color="#7867EB"/><stop offset="1" stop-color="#7867EB" stop-opacity=".5"/></linearGradient><linearGradient id="W" x1="715.9" x2="715.9" y1="252.2" y2="276" gradientUnits="userSpaceOnUse"><stop stop-color="#7867EB"/><stop offset="1" stop-color="#7867EB" stop-opacity=".5"/></linearGradient><linearGradient id="X" x1="729.2" x2="729.2" y1="261.2" y2="276" gradientUnits="userSpaceOnUse"><stop stop-color="#8067EB"/><stop offset="1" stop-color="#7867EB" stop-opacity=".5"/></linearGradient><linearGradient id="Y" x1="742.5" x2="742.5" y1="244" y2="276" gradientUnits="userSpaceOnUse"><stop stop-color="#7867EB"/><stop offset="1" stop-color="#7867EB" stop-opacity=".5"/></linearGradient><linearGradient id="Z" x1="755.7" x2="755.7" y1="228.9" y2="276" gradientUnits="userSpaceOnUse"><stop stop-color="#7867EB"/><stop offset="1" stop-color="#7867EB" stop-opacity=".5"/></linearGradient><linearGradient id="aa" x1="769" x2="769" y1="270.9" y2="276" gradientUnits="userSpaceOnUse"><stop stop-color="#7867EB"/><stop offset="1" stop-color="#7867EB" stop-opacity=".5"/></linearGradient><linearGradient id="ac" x1="697" x2="697" y1="286.2" y2="365.5" gradientUnits="userSpaceOnUse"><stop stop-color="#7E0023"/><stop offset=".2" stop-color="#7E0023"/><stop offset=".2" stop-color="#8F3F97"/><stop offset=".5" stop-color="#8F3F97"/><stop offset=".5" stop-color="red"/><stop offset=".7" stop-color="red"/><stop offset=".7" stop-color="#FF7E00"/><stop offset=".8" stop-color="#FF7E00"/><stop offset=".8" stop-color="#FF0"/><stop offset="1" stop-color="#00E400"/></linearGradient><radialGradient id="o" cx="0" cy="0" r="1" gradientTransform="rotate(54 -1.3 495.3) scale(126)" gradientUnits="userSpaceOnUse"><stop stop-color="#41A0FF"/><stop offset=".4" stop-color="#198CFF"/><stop offset="1" stop-color="#064382"/></radialGradient><radialGradient id="p" cx="0" cy="0" r="1" gradientTransform="matrix(0 5 -32 0 438 328.5)" gradientUnits="userSpaceOnUse"><stop stop-color="#D9D9D9"/><stop offset="1" stop-color="#D9D9D9" stop-opacity="0"/></radialGradient></defs></svg>