<svg xmlns="http://www.w3.org/2000/svg" id="Layer_1" data-name="Layer 1" viewBox="0 0 400 400"><defs><style>.cls-2{fill:#fff}</style></defs><path fill="#40ba9b" d="M0 0h400v400H0z"/><path d="M187 185c0-19-13-30-33-30h-20v62h17c22 1 36-12 36-32m3 100a368 368 0 0 1-37-56h-19v41c0 15 3 19 10 20l13 1v8l-32-1-29 1v-8l9-1c6-2 10-5 10-20v-97c0-16-4-19-11-20l-9-2v-7h26l37-1c28 0 50 13 50 41a45 45 0 0 1-35 42 295 295 0 0 0 37 52 36 36 0 0 0 24 13v7a32 32 0 0 1-11 2 42 42 0 0 1-33-15M283 111c-4-10-14-18-28-18a29 29 0 0 0-22 9c-8 9-8 18-8 34s0 26 8 34a30 30 0 0 0 22 9c9 0 17-3 23-9s8-13 8-24v-13h-29v11h16v5c0 5-1 9-4 13a18 18 0 0 1-14 6 17 17 0 0 1-12-5c-4-5-5-10-5-27s1-21 5-26a17 17 0 0 1 12-5c8 0 14 4 17 11Z" class="cls-2"/></svg>