<?xml version="1.0" standalone="no"?>
<!DOCTYPE svg PUBLIC "-//W3C//DTD SVG 20010904//EN"
 "http://www.w3.org/TR/2001/REC-SVG-20010904/DTD/svg10.dtd">
<svg version="1.0" xmlns="http://www.w3.org/2000/svg"
 width="1875.000000pt" height="1875.000000pt" viewBox="0 0 1875.000000 1875.000000"
 preserveAspectRatio="xMidYMid meet">
<metadata>
Created by potrace 1.14, written by Peter Selinger 2001-2017
</metadata>
<g transform="translate(0.000000,1875.000000) scale(0.100000,-0.100000)"
fill="#000000" stroke="none">
<path d="M14527 13335 c-1 -2 -45 -5 -97 -9 -110 -7 -124 -9 -245 -37 -229
-53 -479 -169 -675 -313 -304 -225 -539 -572 -643 -951 -14 -49 -28 -106 -31
-125 -3 -19 -8 -46 -11 -60 -19 -89 -25 -314 -12 -446 29 -312 181 -633 412
-869 158 -161 375 -295 597 -369 90 -30 131 -41 235 -60 86 -17 349 -24 393
-12 8 3 40 8 70 11 30 4 58 9 61 11 3 2 21 6 40 9 105 18 360 124 452 188 154
107 272 240 339 383 30 63 33 78 33 164 0 76 -4 104 -22 142 -29 64 -97 129
-174 166 -163 79 -309 31 -433 -142 -60 -85 -114 -130 -211 -176 -112 -53
-208 -74 -335 -73 -202 1 -374 74 -539 228 -165 154 -244 352 -240 602 4 280
110 518 329 733 149 147 358 264 525 295 17 3 46 8 65 11 48 9 240 9 320 0
255 -27 497 -123 693 -273 72 -55 203 -184 269 -263 43 -53 128 -174 128 -183
0 -3 16 -33 35 -67 71 -125 131 -322 152 -495 18 -145 -1 -420 -38 -560 -6
-22 -12 -47 -14 -56 -25 -130 -116 -350 -216 -520 -134 -230 -374 -471 -619
-621 -158 -97 -403 -198 -538 -223 -12 -2 -30 -6 -40 -9 -26 -8 -170 -33 -242
-42 -108 -13 -8674 -23 -11117 -12 -612 2 -1116 2 -1121 -1 -5 -3 -8 -159 -8
-346 l1 -340 4255 2 c4442 1 7870 9 8003 18 73 5 105 8 167 20 14 3 40 7 58
10 321 53 710 199 974 367 280 177 539 431 729 713 191 284 320 574 393 885
44 187 58 306 60 500 1 150 -10 290 -34 415 -5 28 -12 64 -15 80 -7 47 -64
239 -91 313 -155 411 -407 739 -759 984 -116 80 -303 180 -430 230 -27 10 -63
25 -80 33 -78 35 -344 106 -455 120 -108 13 -295 26 -303 20z"/>
<path d="M8550 12779 c-142 -16 -220 -34 -320 -70 -294 -108 -545 -407 -631
-751 -29 -116 -33 -304 -9 -418 60 -289 244 -520 515 -646 62 -28 156 -60 204
-69 96 -18 199 -23 279 -14 219 24 367 102 433 228 76 146 16 325 -131 393
-63 29 -161 28 -261 -4 -53 -17 -94 -24 -135 -22 -179 8 -323 150 -326 321 -2
83 12 146 47 218 42 87 89 142 168 199 85 60 143 78 257 81 264 5 504 -92 638
-259 25 -31 80 -134 106 -199 36 -90 55 -166 70 -279 26 -196 2 -342 -86 -518
-43 -87 -66 -119 -133 -186 -145 -146 -315 -216 -560 -230 -55 -3 -1513 -7
-3240 -7 l-3139 -2 -1 -287 0 -287 1900 -1 c1045 -1 1918 -3 1940 -6 61 -6
2582 -6 2645 1 30 3 71 10 90 15 19 5 49 11 65 14 60 11 231 64 310 96 168 70
282 146 405 269 255 256 419 641 422 991 1 123 -7 189 -38 330 -46 210 -203
527 -333 674 -128 144 -242 233 -397 310 -58 29 -177 71 -186 66 -2 -1 -15 3
-30 9 -94 35 -387 57 -538 40z"/>
<path d="M5919 7860 c-4 -112 -1 -612 4 -616 5 -6 1934 -5 4977 1 2725 6 4271
5 4310 -1 70 -12 186 -54 250 -91 79 -46 203 -169 249 -245 41 -71 79 -163 87
-214 3 -21 8 -42 11 -46 6 -11 5 -146 -2 -193 -12 -75 -63 -193 -101 -232 -7
-7 -21 -23 -31 -36 -44 -55 -147 -117 -245 -147 -103 -32 -238 -11 -318 48
-81 59 -114 122 -136 257 -21 129 -40 178 -87 228 -78 83 -173 113 -292 93
-89 -15 -190 -105 -220 -196 -36 -110 4 -351 89 -525 137 -284 415 -486 715
-521 31 -4 101 -6 156 -6 383 2 692 170 917 497 73 106 158 298 172 389 4 21
8 41 11 45 14 23 24 319 11 339 -2 4 -7 28 -11 52 -48 325 -301 726 -578 918
-142 98 -321 174 -472 201 -33 6 -76 13 -95 17 -19 4 -2135 8 -4702 8 l-4668
1 -1 -25z"/>
</g>
</svg>
