<svg width="201" height="64" viewBox="0 0 201 64" fill="none" xmlns="http://www.w3.org/2000/svg">
<path d="M15.5824 12.0884C17.728 12.0884 19.7491 12.4974 21.6458 13.3213C23.5425 14.1452 25.2021 15.2595 26.6246 16.6642C28.0471 18.0748 29.1733 19.7344 29.9912 21.6548C30.8091 23.5752 31.224 25.6082 31.224 27.7598V42.056C31.224 42.5539 30.821 42.9569 30.3231 42.9569H26.0852C25.5873 42.9569 25.1843 42.5539 25.1843 42.056V40.1119C23.8566 41.1195 22.3867 41.9138 20.7804 42.4946C19.1742 43.0755 17.4553 43.3659 15.6179 43.3659C13.4664 43.3659 11.4393 42.9569 9.54261 42.1331C7.64593 41.3151 5.99226 40.1949 4.5816 38.7902C3.17095 37.3795 2.05665 35.7318 1.2387 33.8292C0.420758 31.9325 0.00585938 29.9054 0.00585938 27.7538C0.00585938 25.6023 0.414831 23.5693 1.23277 21.6489C2.05072 19.7344 3.16502 18.0689 4.56975 16.6583C5.97448 15.2476 7.62222 14.1333 9.5189 13.3154C11.4156 12.4974 13.4367 12.0825 15.5824 12.0825V12.0884ZM15.612 37.3202C16.9397 37.3202 18.1844 37.0654 19.3402 36.5556C20.4959 36.0459 21.5036 35.3584 22.363 34.4871C23.2224 33.6217 23.91 32.6082 24.4197 31.4464C24.9294 30.2847 25.1843 29.0578 25.1843 27.7538C25.1843 26.4499 24.9294 25.1637 24.4197 24.0079C23.91 22.8462 23.2283 21.8326 22.363 20.9673C21.5036 20.1019 20.4959 19.4144 19.3402 18.8987C18.1844 18.389 16.9456 18.1282 15.612 18.1282C14.2784 18.1282 13.0396 18.3831 11.8838 18.8987C10.728 19.4084 9.72042 20.1019 8.86099 20.9673C8.00156 21.8326 7.31401 22.8462 6.8102 24.0079C6.30047 25.1696 6.0456 26.4202 6.0456 27.7538C6.0456 29.0874 6.30047 30.2847 6.8102 31.4464C7.31994 32.6082 8.00156 33.6217 8.86099 34.4871C9.72042 35.3524 10.728 36.04 11.8838 36.5556C13.0396 37.0654 14.2784 37.3202 15.612 37.3202V37.3202Z" fill="#086EFF"/>
<path d="M41.6618 12.9361V42.1153C41.6618 42.6132 41.2588 43.0163 40.7609 43.0163H36.523C36.0251 43.0163 35.6221 42.6132 35.6221 42.1153V12.9361C35.6221 12.4382 36.0251 12.0352 36.523 12.0352H40.7609C41.2588 12.0352 41.6618 12.4382 41.6618 12.9361Z" fill="#086EFF"/>
<path d="M66.781 14.3406C67.8597 15.0459 68.814 15.8995 69.6379 16.8952C69.952 17.2745 69.8749 17.8495 69.4838 18.1577L66.781 20.3092L66.2061 20.7834C65.8326 21.0857 65.2874 21.0501 64.9732 20.6886C64.3924 20.0188 63.6989 19.4617 62.8809 19.0171C61.8022 18.4303 60.6405 18.134 59.3899 18.134C58.3704 18.134 57.4161 18.3296 56.5152 18.7208C55.6143 19.112 54.8319 19.6395 54.1681 20.3033C53.5042 20.9671 52.9767 21.7495 52.5855 22.6505C52.1943 23.5514 51.9987 24.5116 51.9987 25.5251V42.0499C51.9987 42.5478 51.5957 42.9509 51.0978 42.9509H46.8599C46.362 42.9509 45.959 42.5478 45.959 42.0499V12.9952C45.959 12.4973 46.362 12.0942 46.8599 12.0942H51.0978C51.5957 12.0942 51.9987 12.4973 51.9987 12.9952V14.3465C53.0538 13.6353 54.2095 13.0841 55.4602 12.687C56.7108 12.2898 58.0207 12.0942 59.3899 12.0942C60.759 12.0942 62.0689 12.2898 63.3195 12.687C64.5702 13.0841 65.726 13.6353 66.781 14.3465V14.3406Z" fill="#086EFF"/>
<path d="M97.7263 28.3642C97.2403 27.8011 97.2403 26.9594 97.7263 26.4023C98.2953 25.7444 99.3562 24.553 100.725 23.1246C100.565 22.5615 100.37 22.0162 100.139 21.4768C99.3385 19.5979 98.236 17.9561 96.8254 16.5455C95.4147 15.1407 93.761 14.0264 91.8644 13.2026C89.9677 12.3787 87.9465 11.9697 85.795 11.9697C83.6434 11.9697 81.6282 12.3787 79.7493 13.2026C77.8704 14.0264 76.2286 15.1407 74.8179 16.5455C73.4132 17.9561 72.293 19.5979 71.475 21.4768C70.6512 23.3557 70.2422 25.371 70.2422 27.5225C70.2422 29.6741 70.6512 31.7011 71.475 33.5978C72.293 35.4945 73.4132 37.1482 74.8179 38.5529C76.2286 39.9636 77.8704 41.0779 79.7493 41.9017C81.6282 42.7197 83.6434 43.1346 85.795 43.1346C87.5909 43.1346 89.292 42.8441 90.8982 42.2573C92.5045 41.6765 93.9685 40.8823 95.3021 39.8746V63.0023C95.3021 63.5002 95.7051 63.9091 96.203 63.9091H100.441C100.939 63.9091 101.342 63.5002 101.342 63.0023V32.282C99.6763 30.5691 98.3783 29.1169 97.7263 28.3642ZM95.3021 27.6114C95.3021 28.9035 95.0472 30.1304 94.5375 31.2922C94.0277 32.448 93.3461 33.4556 92.4808 34.3209C91.6213 35.1863 90.6137 35.862 89.4579 36.3539C88.3081 36.8459 87.0871 37.0889 85.795 37.0889C84.5029 37.0889 83.2759 36.8459 82.1261 36.3539C80.9703 35.862 79.9627 35.1863 79.1032 34.3209C78.2438 33.4556 77.5563 32.448 77.0465 31.2922C76.5427 30.1304 76.2879 28.8857 76.2879 27.5521C76.2879 26.2185 76.5427 25.0272 77.0465 23.8714C77.5563 22.7156 78.2438 21.7021 79.1032 20.8426C79.9627 19.9773 80.9703 19.2897 82.1261 18.78C83.2759 18.2703 84.5029 18.0154 85.795 18.0154C87.0871 18.0154 88.3673 18.2703 89.5172 18.78C90.673 19.2897 91.6806 19.9773 92.54 20.8426C93.3995 21.7021 94.0752 22.7156 94.5671 23.8714C95.0531 25.0272 95.3021 26.2541 95.3021 27.5521V27.6114Z" fill="#086EFF"/>
<path d="M198.95 18.9221C197.865 16.9484 196.395 15.3362 194.534 14.0856C193.479 13.3803 192.311 12.8291 191.037 12.4379C189.769 12.0467 188.441 11.8511 187.072 11.8511C185.703 11.8511 184.381 12.0467 183.113 12.4379C181.838 12.8291 180.671 13.3803 179.616 14.0856L179.586 12.7342C179.574 12.2482 179.177 11.8511 178.685 11.8511H174.429C173.926 11.8511 173.522 12.2541 173.522 12.7579V22.4784C175.188 24.1914 176.486 25.6494 177.144 26.4022C177.63 26.9593 177.63 27.801 177.144 28.3641C176.486 29.1168 175.188 30.5749 173.522 32.2878V42.1683C173.522 42.6662 173.926 43.0752 174.429 43.0752H178.667C179.165 43.0752 179.568 42.6662 179.568 42.1683V25.4123C179.568 24.3929 179.764 23.4268 180.155 22.5021C180.552 21.5834 181.08 20.7833 181.749 20.0957C182.413 19.4141 183.213 18.8747 184.132 18.4835C185.057 18.0923 186.029 17.8967 187.054 17.8967C188.079 17.8967 189.034 18.0923 189.935 18.4835C190.842 18.8747 191.636 19.4141 192.323 20.0957C193.011 20.7833 193.55 21.5834 193.941 22.5021C194.339 23.4268 194.534 24.3929 194.534 25.4123V42.1683C194.534 42.6662 194.937 43.0752 195.435 43.0752H199.673C200.177 43.0752 200.58 42.6662 200.58 42.1683V25.4123C200.58 23.0593 200.034 20.9018 198.95 18.9221V18.9221Z" fill="#086EFF"/>
<path d="M34.8929 5.41437L38.135 8.65651C38.4136 8.93509 38.87 8.93509 39.1486 8.65651L42.3907 5.41437C42.687 5.11802 42.7167 4.6557 42.4559 4.32971C41.9521 3.69551 40.8556 2.82422 38.6447 2.82422C36.4339 2.82422 35.3374 3.69551 34.8336 4.32971C34.5728 4.6557 34.6024 5.12394 34.8988 5.41437H34.8929Z" fill="#086EFF"/>
<path d="M162.51 40.7874C162.901 40.5681 163.316 40.3073 163.69 40.0465C169.143 36.431 174.975 29.9526 176.7 27.973C176.996 27.6351 176.996 27.1313 176.7 26.7875C174.975 24.8079 169.143 18.3236 163.69 14.714C163.316 14.4532 162.901 14.1983 162.51 13.9731C160.157 12.6454 157.49 11.9697 154.514 11.9697C150.069 11.9697 146.317 13.4693 143.259 16.4151C140.2 19.3609 138.642 23.0535 138.642 27.3803C138.642 31.7071 140.2 35.4056 143.259 38.3454C146.317 41.2912 150.069 42.7908 154.514 42.7908C157.49 42.7908 160.151 42.1151 162.51 40.7874ZM161.319 34.3091C159.481 36.1465 157.211 37.0652 154.514 37.0652C151.818 37.0652 149.488 36.1465 147.645 34.3091C145.867 32.4065 144.948 30.1423 144.948 27.3803C144.948 24.6182 145.867 22.3541 147.645 20.5107C149.482 18.6081 151.752 17.6894 154.514 17.6894C157.276 17.6894 159.481 18.6081 161.319 20.5107C163.156 22.3481 164.081 24.6182 164.081 27.3803C164.081 30.1423 163.162 32.4065 161.319 34.3091Z" fill="#086EFF"/>
<path d="M112.366 13.979C111.975 14.1983 111.56 14.4591 111.187 14.7198C105.734 18.3354 99.9017 24.8137 98.1769 26.7934C97.8805 27.1313 97.8805 27.6351 98.1769 27.9788C99.9017 29.9585 105.734 36.4428 111.187 40.0524C111.56 40.3132 111.975 40.568 112.366 40.7933C114.719 42.121 117.387 42.7966 120.362 42.7966C124.807 42.7966 128.559 41.2971 131.618 38.3513C134.676 35.4055 136.235 31.7129 136.235 27.3861C136.235 23.0593 134.676 19.3608 131.618 16.4209C128.559 13.4751 124.807 11.9756 120.362 11.9756C117.387 11.9756 114.725 12.6513 112.366 13.979ZM113.558 20.4573C115.395 18.6199 117.665 17.7012 120.362 17.7012C123.118 17.7012 125.388 18.6199 127.232 20.4573C129.01 22.3599 129.928 24.6241 129.928 27.3861C129.928 30.1482 129.01 32.4123 127.232 34.2557C125.394 36.1583 123.124 37.077 120.362 37.077C117.665 37.077 115.395 36.1583 113.558 34.2557C111.72 32.4182 110.796 30.1482 110.796 27.3861C110.796 24.6241 111.714 22.3599 113.558 20.4573Z" fill="#086EFF"/>
<path d="M133.609 45.1793L136.922 48.4925C137.207 48.777 137.669 48.777 137.96 48.4925L141.273 45.1793C141.575 44.877 141.605 44.4028 141.338 44.065C140.822 43.4189 139.708 42.5239 137.444 42.5239C135.18 42.5239 134.06 43.4189 133.55 44.065C133.283 44.3969 133.319 44.877 133.615 45.1793H133.609Z" fill="#086EFF"/>
<path d="M133.609 45.1793L136.922 48.4925C137.207 48.777 137.669 48.777 137.96 48.4925L141.273 45.1793C141.575 44.877 141.605 44.4028 141.338 44.065C140.822 43.4189 139.708 42.5239 137.444 42.5239C135.18 42.5239 134.06 43.4189 133.55 44.065C133.283 44.3969 133.319 44.877 133.615 45.1793H133.609Z" fill="#086EFF"/>
</svg>
