<?xml version="1.0" encoding="UTF-8"?>
<svg width="29px" height="29px" viewBox="0 0 29 29" version="1.1" xmlns="http://www.w3.org/2000/svg" xmlns:xlink="http://www.w3.org/1999/xlink">
    <title>001-menu</title>
    <g id="Mockups" stroke="none" stroke-width="1" fill="none" fill-rule="evenodd">
        <g id="1.-Homepage" transform="translate(-652.000000, -138.000000)" fill="#000000" fill-rule="nonzero">
            <g id="001-menu" transform="translate(652.000000, 138.000000)">
                <path d="M11.4791667,9.66666667 L1.8125,9.66666667 C0.813208333,9.66666667 0,8.85345833 0,7.85416667 L0,1.8125 C0,0.813208333 0.813208333,0 1.8125,0 L11.4791667,0 C12.4784583,0 13.2916667,0.813208333 13.2916667,1.8125 L13.2916667,7.85416667 C13.2916667,8.85345833 12.4784583,9.66666667 11.4791667,9.66666667 Z M1.8125,1.20833333 C1.48020833,1.20833333 1.20833333,1.479 1.20833333,1.8125 L1.20833333,7.85416667 C1.20833333,8.18766667 1.48020833,8.45833333 1.8125,8.45833333 L11.4791667,8.45833333 C11.8114583,8.45833333 12.0833333,8.18766667 12.0833333,7.85416667 L12.0833333,1.8125 C12.0833333,1.479 11.8114583,1.20833333 11.4791667,1.20833333 L1.8125,1.20833333 Z" id="Shape"></path>
                <path d="M11.4791667,29 L1.8125,29 C0.813208333,29 0,28.1867917 0,27.1875 L0,13.8958333 C0,12.8965417 0.813208333,12.0833333 1.8125,12.0833333 L11.4791667,12.0833333 C12.4784583,12.0833333 13.2916667,12.8965417 13.2916667,13.8958333 L13.2916667,27.1875 C13.2916667,28.1867917 12.4784583,29 11.4791667,29 Z M1.8125,13.2916667 C1.48020833,13.2916667 1.20833333,13.5623333 1.20833333,13.8958333 L1.20833333,27.1875 C1.20833333,27.521 1.48020833,27.7916667 1.8125,27.7916667 L11.4791667,27.7916667 C11.8114583,27.7916667 12.0833333,27.521 12.0833333,27.1875 L12.0833333,13.8958333 C12.0833333,13.5623333 11.8114583,13.2916667 11.4791667,13.2916667 L1.8125,13.2916667 Z" id="Shape"></path>
                <path d="M27.1875,29 L17.5208333,29 C16.5215417,29 15.7083333,28.1867917 15.7083333,27.1875 L15.7083333,21.1458333 C15.7083333,20.1465417 16.5215417,19.3333333 17.5208333,19.3333333 L27.1875,19.3333333 C28.1867917,19.3333333 29,20.1465417 29,21.1458333 L29,27.1875 C29,28.1867917 28.1867917,29 27.1875,29 Z M17.5208333,20.5416667 C17.1885417,20.5416667 16.9166667,20.8123333 16.9166667,21.1458333 L16.9166667,27.1875 C16.9166667,27.521 17.1885417,27.7916667 17.5208333,27.7916667 L27.1875,27.7916667 C27.5197917,27.7916667 27.7916667,27.521 27.7916667,27.1875 L27.7916667,21.1458333 C27.7916667,20.8123333 27.5197917,20.5416667 27.1875,20.5416667 L17.5208333,20.5416667 Z" id="Shape"></path>
                <path d="M27.1875,16.9166667 L17.5208333,16.9166667 C16.5215417,16.9166667 15.7083333,16.1034583 15.7083333,15.1041667 L15.7083333,1.8125 C15.7083333,0.813208333 16.5215417,0 17.5208333,0 L27.1875,0 C28.1867917,0 29,0.813208333 29,1.8125 L29,15.1041667 C29,16.1034583 28.1867917,16.9166667 27.1875,16.9166667 Z M17.5208333,1.20833333 C17.1885417,1.20833333 16.9166667,1.479 16.9166667,1.8125 L16.9166667,15.1041667 C16.9166667,15.4376667 17.1885417,15.7083333 17.5208333,15.7083333 L27.1875,15.7083333 C27.5197917,15.7083333 27.7916667,15.4376667 27.7916667,15.1041667 L27.7916667,1.8125 C27.7916667,1.479 27.5197917,1.20833333 27.1875,1.20833333 L17.5208333,1.20833333 Z" id="Shape"></path>
            </g>
        </g>
    </g>
</svg>