<?xml version="1.0" encoding="UTF-8"?>
<svg width="48px" height="48px" viewBox="0 0 48 48" version="1.1" xmlns="http://www.w3.org/2000/svg" xmlns:xlink="http://www.w3.org/1999/xlink">
    <title>Icon illustration: Community</title>
    <g id="Icon_48px_Community" stroke="none" stroke-width="1" fill="none" fill-rule="evenodd">
        <g id="network-copy" transform="translate(0.000000, 3.000000)">
            <path d="M46.1301865,21.3546868 C45.9321085,20.2352249 45.0438949,19.3611602 43.9134257,19.1730139 L40.0040984,10.7748634 L39.989853,10.7815889 C40.7684285,9.51685582 40.365489,7.86582598 39.0899378,7.093905 C38.2046919,6.55821774 37.0884681,6.57124842 36.2161956,7.12761665 L36.2399378,7.06574191 L27.807377,3.85027322 C27.54316,2.39192938 26.1366026,1.42202606 24.6656868,1.68398487 C23.5413228,1.88423707 22.6648954,2.7629256 22.4755512,3.87986549 L14.6284059,7.46994536 C13.5633974,6.42891971 11.8488694,6.44102564 10.7988694,7.49693148 C9.77803844,8.52358134 9.7571792,10.1662884 10.7516393,11.2180748 L7.05056529,19.1730139 C5.57651215,19.4192518 4.58281515,20.8035309 4.83109101,22.2649853 C5.02001131,23.3767129 5.88965517,24.2528794 7.00774449,24.4579235 L10.0501413,33.0383354 C9.17922555,34.2428752 9.45802713,35.9192938 10.6729508,36.7827659 C11.6071227,37.4467423 12.8623233,37.4532997 13.8034483,36.7992434 L22.4768231,40.4417823 C22.7328999,41.9015553 24.1340305,42.8791089 25.6063878,42.6252207 C26.7316846,42.4311896 27.6129452,41.5574611 27.808649,40.4417823 L36.60684,36.7978983 C37.8304127,37.6492644 39.5184002,37.356116 40.3771905,36.1430013 C41.0326456,35.217066 41.032052,33.9831021 40.375749,33.0578394 L43.933013,24.4599412 C45.4046919,24.2040353 46.3883833,22.8137032 46.1301865,21.3546868 Z M36.7170718,8.44018495 C36.7172414,8.44001681 36.7173262,8.43993274 36.7174958,8.43976461 C37.2474562,7.91458596 38.1065008,7.91467003 38.6362069,8.44010088 C39.1659129,8.96553174 39.1658282,9.81723413 38.6358677,10.3424128 C38.0988694,10.850021 37.2544941,10.850021 36.7174958,10.3424128 C36.1875353,9.81723413 36.1873657,8.96553174 36.7170718,8.44018495 Z M36.2623233,11.6787726 C37.0821085,12.1892392 38.1176088,12.2150483 38.9621538,11.7460277 L42.4848219,19.3135771 C41.7407575,19.6008407 41.1621255,20.1984027 40.9029112,20.9472047 L27.6561051,16.7686423 C27.7299604,16.5820092 27.7825325,16.38781 27.8128038,16.1895755 L36.2623233,11.6787726 Z M24.4644715,18.3592266 L24.4644715,25.2757461 C24.1225834,25.3635982 23.8014698,25.5173602 23.5195308,25.7283733 L11.6857264,21.8174863 L23.5195308,17.9065994 C23.8014698,18.1176124 24.1224986,18.2713745 24.4644715,18.3592266 Z M23.7861221,15.7645229 C23.7861221,15.0216057 24.3934992,14.4194199 25.1428208,14.4194199 C25.8921425,14.4194199 26.4995195,15.0216057 26.4995195,15.7645229 C26.4995195,16.5074401 25.8921425,17.1096259 25.1428208,17.1096259 C24.3934992,17.1096259 23.7861221,16.5074401 23.7861221,15.7645229 Z M25.1428208,26.5253468 C25.8921425,26.5253468 26.4995195,27.1275326 26.4995195,27.8704498 C26.4995195,28.613367 25.8921425,29.2155528 25.1428208,29.2155528 C24.3934992,29.2155528 23.7861221,28.613367 23.7861221,27.8704498 C23.7861221,27.1275326 24.3934992,26.5253468 25.1428208,26.5253468 Z M25.8259186,25.2757461 L25.8259186,18.3592266 C26.1698417,18.2704498 26.4925664,18.1150063 26.7756077,17.9018916 L39.1846523,21.8174863 L26.7756077,25.7330811 C26.4925664,25.5199664 26.1698417,25.3645229 25.8259186,25.2757461 Z M27.6839175,5.24514502 L27.6839175,5.24447247 L35.2855003,8.1431694 C34.8508479,8.92946616 34.8562747,9.88247163 35.2997456,10.6638924 L27.6527134,14.7476251 C27.3265969,13.9652795 26.648078,13.3807482 25.8211702,13.1698193 L25.8211702,6.9258512 C26.6829282,6.70323665 27.3793386,6.07490542 27.6839175,5.24514502 Z M25.1428208,2.98604456 C25.8921425,2.98604456 26.4995195,3.58823035 26.4995195,4.33114754 C26.4995195,5.07406473 25.8921425,5.67625053 25.1428208,5.67625053 C24.3934992,5.67625053 23.7861221,5.07406473 23.7861221,4.33114754 C23.7861221,3.58823035 24.3934992,2.98604456 25.1428208,2.98604456 Z M15.3264274,8.63413199 L22.6173262,5.29625893 C22.9330978,6.10222783 23.6204353,6.708533 24.4644715,6.9258512 L24.4644715,13.1698193 C23.6563878,13.3767129 22.9889768,13.9399748 22.653957,14.6978562 L15.3067552,10.2139554 C15.4732052,9.70130307 15.4800735,9.1507356 15.3264274,8.63413199 Z M11.7741662,8.44018495 C11.7743358,8.44001681 11.7744206,8.43993274 11.7745902,8.43976461 C12.3045506,7.91433375 13.16368,7.91433375 13.6936405,8.43976461 C14.2236009,8.96519546 14.2236009,9.81698193 13.6936405,10.3424128 C13.1564726,10.8501051 12.3117581,10.8501051 11.7745902,10.3424128 C11.2446297,9.81723413 11.2444601,8.96553174 11.7741662,8.44018495 Z M11.9109384,11.9424128 C12.176173,12.030517 12.4536179,12.0772594 12.7333522,12.0809584 C13.4200113,12.0802858 14.0804692,11.819504 14.5795647,11.3519126 L22.4701244,16.1680538 C22.4998021,16.3790668 22.5546637,16.5858764 22.6336066,16.784111 L10.057688,20.937789 C9.79686263,20.1932745 9.21992651,19.5995797 8.47916902,19.3135771 L11.9109384,11.9424128 Z M6.14903901,21.8174863 C6.14903901,21.0745691 6.75641605,20.4723834 7.5057377,20.4723834 C8.25505936,20.4723834 8.8624364,21.0745691 8.8624364,21.8174863 C8.8624364,22.5604035 8.25505936,23.1625893 7.5057377,23.1625893 C6.75641605,23.1625893 6.14903901,22.5604035 6.14903901,21.8174863 Z M13.2136235,35.5467003 C13.2135387,35.5467844 13.2134539,35.5468684 13.2133691,35.5469525 C12.67671,36.0553174 11.8316563,36.0553174 11.2949972,35.5469525 C10.7651215,35.0217739 10.764952,34.1700715 11.2947428,33.6447247 C11.8245336,33.1193779 12.6834935,33.1192098 13.2133691,33.6444725 C13.7432448,34.1697352 13.7434144,35.0212694 13.2136235,35.5467003 Z M14.1725551,32.6939891 C13.3713397,31.9359395 12.1927925,31.7213955 11.1722159,32.1478773 L8.40522894,24.3462799 C9.17939514,24.0739807 9.78719616,23.4681799 10.057688,22.6992013 L22.6329282,26.8535519 C22.341662,27.5462799 22.3628604,28.3294662 22.6912663,29.0057167 L14.4873092,33.0733081 C14.3944601,32.9374527 14.2890616,32.8105086 14.1725551,32.6939891 Z M22.6098643,39.0348045 L14.7118428,35.7197982 C14.878632,35.3681379 14.9658847,34.9845313 14.9675806,34.5959647 C14.9675806,34.5125683 14.9513002,34.4332072 14.94316,34.3511559 L23.586009,30.0670029 C23.8531939,30.2517024 24.1520068,30.386633 24.4678632,30.4651534 L24.4678632,37.381673 C23.6144149,37.6007566 22.9215659,38.2172341 22.6098643,39.0348045 Z M25.1428208,41.3214796 C24.3934992,41.3214796 23.7861221,40.7192938 23.7861221,39.9763766 C23.7861221,39.2334594 24.3934992,38.6312736 25.1428208,38.6312736 C25.8921425,38.6312736 26.4995195,39.2334594 26.4995195,39.9763766 C26.4995195,40.7192938 25.8920577,41.3214796 25.1428208,41.3214796 Z M27.677134,39.040185 C27.3672979,38.2210172 26.6750424,37.602438 25.8211702,37.381673 L25.8211702,30.4651534 C26.1534765,30.3803279 26.4663652,30.2332913 26.7430469,30.0320303 L35.6897965,33.4936528 C35.3706331,34.2003363 35.3741097,35.0090794 35.6992934,35.7130727 L27.677134,39.040185 Z M39.2769079,32.1673813 C38.4024308,31.791509 37.3955059,31.8801177 36.601498,32.4027743 L27.6337196,28.9324086 C27.9223573,28.2749895 27.9304975,27.5297184 27.6561051,26.8663304 L40.9029112,22.687768 C41.1668739,23.4478352 41.7598361,24.0510298 42.5194178,24.3321564 L39.2769079,32.1673813 Z M43.4582533,23.1625893 C42.7089316,23.1625893 42.1015546,22.5604035 42.1015546,21.8174863 C42.1015546,21.0745691 42.7089316,20.4723834 43.4582533,20.4723834 C44.2075749,20.4723834 44.814952,21.0745691 44.814952,21.8174863 C44.814952,22.5604035 44.2074901,23.1625893 43.4582533,23.1625893 Z" id="Shape" fill="#198CFF" fill-rule="nonzero"></path>
            <path d="M9.20056127,23.1285175 L9.20044764,23.1286302 C9.20038405,23.1286933 9.20038405,23.1286933 9.20032045,23.1287563 L9.20027805,23.1287983 C9.20023566,23.1288404 9.20023566,23.1288404 9.18383743,23.1447332 C8.26149149,24.0184503 6.81239206,24.0184503 5.87380395,23.1289951 C4.94925573,22.2126424 4.9490264,20.7230398 5.87337909,19.8064409 C6.79295404,18.8945796 8.2804081,18.8943545 9.20013643,19.806076 C10.1246089,20.7225003 10.1248382,22.2118471 9.20056127,23.1285175 Z" id="Path" stroke="#198CFF" stroke-width="2" fill="#FFFFFF" fill-rule="nonzero"></path>
            <path d="M46.348826,4.3021451 C47.1684093,3.48926106 47.1681927,2.17463265 46.3483756,1.36195256 C45.5250962,0.545840236 44.1878122,0.546042613 43.36455,1.36239911 C42.5449809,2.17509346 42.5451833,3.49004165 43.3527761,4.29074582 C44.1935185,5.0871618 45.5198575,5.0871618 46.348333,4.30263391 C46.3484401,4.3025277 46.3484401,4.3025277 46.3485473,4.30242149 L46.3486008,4.30236838 C46.3487165,4.30225375 46.3487322,4.30223809 46.3488206,4.3021505 Z M46.3488206,4.3021505 C46.3488346,4.30213665 46.3488504,4.30212099 46.3488687,4.30210285 L46.3487834,4.30218736 C46.3487976,4.30217327 46.3488118,4.30215919 46.348826,4.3021451 Z" id="Path" stroke="#FAA204" stroke-width="1.5" fill="#FFFFFF" fill-rule="nonzero"></path>
            <path d="M4.34882604,9.3021451 C5.16840932,8.48926106 5.16819272,7.17463265 4.34837564,6.36195256 C3.52509619,5.54584024 2.18781217,5.54604261 1.36454996,6.36239911 C0.544980863,7.17509346 0.5451833,8.49004165 1.35277611,9.29074582 C2.19351846,10.0871618 3.51985754,10.0871618 4.34833302,9.30263391 C4.34845205,9.3025159 4.34845205,9.3025159 4.34857108,9.30239788 L4.34858919,9.30237993 C4.34871085,9.30225931 4.34872659,9.30224371 4.34882084,9.30215026 Z" id="Path-Copy-2" stroke="#FAA204" stroke-width="1.5" fill="#FFFFFF" fill-rule="nonzero"></path>
            <path d="M40.2024225,36.148353 C41.2172503,35.1418313 41.2169853,33.5133746 40.2018784,32.5071047 C39.1833233,31.4974167 37.5294743,31.497667 36.5109535,32.5076442 C35.4961399,33.5139453 35.4963907,35.1427838 36.4992734,36.1370467 C37.5377985,37.1208178 39.1755775,37.1208178 40.2018358,36.1489348 C40.2020246,36.1487476 40.2020246,36.1487476 40.2022134,36.1485604 L40.2022554,36.1485188 C40.2023405,36.1484344 40.2023565,36.1484185 40.2024156,36.14836 Z M40.2024156,36.14836 C40.2024293,36.1483463 40.2024454,36.1483304 40.2024652,36.1483108 L40.2023799,36.1483953 C40.2023941,36.1483812 40.2024083,36.1483671 40.2024225,36.148353 Z" id="Path-Copy" stroke="#FAA204" stroke-width="1.5" fill="#FFFFFF" fill-rule="nonzero"></path>
            <polygon id="Path" fill="#FAA204" points="12.741501 12.0889239 12.741001 12.0889239 12.739901 12.0889239"></polygon>
        </g>
    </g>
</svg>
