<?xml version="1.0" encoding="utf-8"?>
<svg version="1.1" xmlns="http://www.w3.org/2000/svg" xmlns:xlink="http://www.w3.org/1999/xlink" width="72" height="40" viewBox="0 0 72 40">
  <g>
    <path fill="#343638" d="M8.837,34.546c-0.999,0.96 -2.229,1.46 -3.689,1.46c-1.46,0 -2.689,-0.5 -3.688,-1.46c-0.999,-0.961 -1.46,-2.19 -1.46,-3.573c0,-1.422 0.499,-2.613 1.46,-3.573c0.999,-0.961 2.228,-1.46 3.688,-1.46c1.46,0 2.69,0.499 3.689,1.46c0.999,0.96 1.46,2.19 1.46,3.573c0.038,1.421 -0.461,2.612 -1.46,3.573Zm-5.917,-1.268c0.576,0.615 1.306,0.884 2.228,0.884c0.884,0 1.652,-0.308 2.229,-0.884c0.576,-0.615 0.883,-1.383 0.883,-2.305c0,-0.961 -0.307,-1.729 -0.883,-2.306c-0.577,-0.614 -1.307,-0.883 -2.229,-0.883c-0.883,0 -1.652,0.307 -2.228,0.883c-0.576,0.615 -0.884,1.384 -0.884,2.306c0.039,0.96 0.308,1.729 0.884,2.305Zm15.368,-7.338c1.306,0 2.459,0.461 3.381,1.383c0.922,0.922 1.383,2.113 1.383,3.65c0,1.498 -0.461,2.728 -1.383,3.688c-0.922,0.961 -1.998,1.422 -3.227,1.422c-1.23,0 -2.344,-0.538 -3.343,-1.614l0,5.071l-2.074,0l0,-13.485l2.074,0l0,1.729c0.807,-1.23 1.883,-1.844 3.189,-1.844Zm-3.227,5.071c0,0.922 0.269,1.691 0.845,2.305c0.576,0.615 1.268,0.884 2.075,0.884c0.807,0 1.537,-0.307 2.113,-0.884c0.615,-0.576 0.922,-1.344 0.922,-2.305c0,-0.96 -0.307,-1.729 -0.884,-2.344c-0.576,-0.614 -1.306,-0.922 -2.113,-0.922c-0.807,0 -1.537,0.308 -2.074,0.922c-0.615,0.615 -0.884,1.384 -0.884,2.344Zm20.209,0.884l-7.684,0c0.038,0.73 0.384,1.306 0.96,1.729c0.577,0.422 1.307,0.653 2.075,0.653c1.23,0 2.152,-0.384 2.805,-1.153l1.191,1.307c-1.076,1.075 -2.421,1.652 -4.15,1.652c-1.383,0 -2.535,-0.461 -3.496,-1.384c-0.96,-0.922 -1.46,-2.151 -1.46,-3.688c0,-1.537 0.5,-2.766 1.46,-3.688c0.999,-0.922 2.152,-1.383 3.458,-1.383c1.306,0 2.459,0.384 3.419,1.191c0.923,0.806 1.384,1.921 1.384,3.342l0,1.422l0.038,0Zm-7.684,-1.652l5.609,0c0,-0.807 -0.269,-1.46 -0.768,-1.883c-0.5,-0.461 -1.153,-0.653 -1.921,-0.653c-0.769,0 -1.422,0.23 -2.036,0.691c-0.577,0.462 -0.884,1.076 -0.884,1.845Zm12.948,0.345l0,5.302l-2.075,0l0,-9.835l2.075,0l0,1.806c0.345,-0.615 0.806,-1.076 1.383,-1.422c0.576,-0.346 1.229,-0.499 1.882,-0.499c1.115,0 1.998,0.345 2.69,0.999c0.691,0.691 1.037,1.652 1.037,2.919l0,5.994l-2.075,0l0,-5.379c0,-1.806 -0.768,-2.728 -2.266,-2.728c-0.73,0 -1.345,0.231 -1.845,0.692c-0.537,0.538 -0.806,1.229 -0.806,2.151Z" />
    <path fill="#198cff" d="M59.091,35.89l-1.883,0l0,-1.306c-0.807,0.961 -1.882,1.46 -3.266,1.46c-1.037,0 -1.882,-0.307 -2.535,-0.883c-0.654,-0.577 -0.999,-1.345 -0.999,-2.306c0,-0.96 0.345,-1.69 1.075,-2.151c0.73,-0.461 1.691,-0.73 2.882,-0.73l2.689,0l0,-0.384c0,-1.307 -0.73,-1.96 -2.19,-1.96c-0.922,0 -1.844,0.346 -2.843,0.999l-0.922,-1.306c1.191,-0.961 2.536,-1.422 4.073,-1.422c1.152,0 2.113,0.308 2.843,0.884c0.73,0.576 1.114,1.498 1.114,2.766l0,6.339l-0.038,0Zm-2.075,-3.649l0,-0.846l-2.305,0c-1.499,0 -2.229,0.461 -2.229,1.383c0,0.461 0.192,0.846 0.538,1.115c0.384,0.269 0.884,0.384 1.537,0.384c0.653,0 1.23,-0.192 1.729,-0.538c0.461,-0.384 0.73,-0.884 0.73,-1.498Zm9.567,3.803c-1.23,0 -2.306,-0.461 -3.228,-1.421c-0.922,-0.961 -1.383,-2.19 -1.383,-3.689c0,-1.498 0.461,-2.728 1.383,-3.65c0.922,-0.922 2.075,-1.383 3.381,-1.383c1.307,0 2.382,0.615 3.189,1.844l0,-1.729l2.075,0l0,13.371l-2.075,0l0,-5.072c-0.999,1.191 -2.113,1.729 -3.342,1.729Zm-2.574,-5.033c0,0.922 0.307,1.691 0.922,2.305c0.614,0.577 1.306,0.884 2.113,0.884c0.807,0 1.498,-0.307 2.074,-0.884c0.577,-0.614 0.846,-1.344 0.846,-2.305c0,-0.922 -0.269,-1.729 -0.846,-2.344c-0.576,-0.614 -1.267,-0.922 -2.074,-0.922c-0.807,0 -1.537,0.308 -2.113,0.922c-0.615,0.615 -0.922,1.384 -0.922,2.344Z" />
    <path fill="#198cff" d="M13.063,12.838l0,-1.882c2.459,0 9.951,0.038 12.986,0.038c6.608,0 13.217,-0.038 19.825,-0.038c2.421,0 4.457,-1.499 5.072,-3.804c0.384,-1.422 0.192,-2.766 -0.807,-3.919c-0.884,-0.999 -1.96,-1.421 -3.266,-1.345c-1.268,0.116 -2.42,1.23 -2.613,2.498c-0.115,0.999 0.193,1.767 1.038,2.305c0.614,0.384 1.306,0.423 1.998,0.115c0.23,-0.115 0.422,-0.269 0.576,-0.499c0.269,-0.461 0.807,-0.615 1.229,-0.346c0.461,0.23 0.615,0.768 0.385,1.268c-0.346,0.691 -0.922,1.114 -1.614,1.383c-2.382,0.922 -5.072,-0.615 -5.456,-3.151c-0.269,-1.844 0.653,-3.803 2.305,-4.764c1.345,-0.807 2.805,-0.883 4.227,-0.384c2.113,0.73 3.458,2.229 3.919,4.418c0.307,1.576 0,3.074 -0.769,4.457c-1.114,1.998 -2.843,3.151 -5.11,3.535c-0.384,0.077 -0.768,0.077 -1.152,0.077c-3.919,0.038 -28.278,0.038 -32.773,0.038Z" />
    <path fill="#198cff" d="M28.585,9.169l-9.893,0l0,-1.575l17.154,0c1.245,0 2.031,-0.555 2.333,-1.665c0.175,-0.696 -0.05,-1.713 -0.515,-2.278c-0.366,-0.426 -1.088,-0.667 -1.802,-0.63c-0.542,0.03 -1.089,0.567 -1.152,1.137c-0.061,0.427 0.082,0.741 0.431,0.975c0.278,0.154 0.567,0.177 0.845,0.055c0.324,-0.108 0.655,-0.108 0.921,0.159c0.435,0.49 0.173,1.146 -0.42,1.383c-1.484,0.567 -3.168,-0.397 -3.384,-1.955c-0.171,-1.107 0.413,-2.3 1.408,-2.905c0.764,-0.443 2.021,-0.492 2.963,-0.178c1.176,0.392 2.025,1.535 2.342,2.937c0.199,0.877 0.03,1.787 -0.454,2.666c-0.625,1.094 -1.449,1.607 -2.844,1.868c-0.186,0.038 -0.344,0.044 -0.71,0.044l-6.455,0l-0.047,-0.003c-0.171,-0.029 -0.335,-0.035 -0.721,-0.035Z" />
    <path fill="#198cff" d="M56.89,16.936c0.576,1.153 0.544,2.289 -0.175,3.328c-0.669,0.961 -1.608,1.399 -2.794,1.314c-1.162,-0.086 -2.125,-1.023 -2.294,-2.177c-0.023,-0.089 -0.036,-0.172 -0.042,-0.261c-0.005,-0.065 -0.005,-0.114 -0.005,-0.231l0.002,-0.041c0.059,-0.41 0.41,-0.709 0.824,-0.709c0.413,0 0.764,0.299 0.82,0.693c0.012,0.062 0.019,0.108 0.033,0.211c0.022,0.169 0.036,0.237 0.067,0.315c0.172,0.428 0.632,0.642 1.129,0.518c0.7,-0.16 1.148,-0.794 1.083,-1.541c-0.068,-0.846 -0.716,-1.573 -1.589,-1.741c-0.05,-0.013 -0.115,-0.021 -0.196,-0.025c-0.064,-0.004 -0.118,-0.005 -0.233,-0.005c-2.097,0 -4.971,0.005 -12.333,0.019c-7.362,0.015 -10.236,0.02 -12.333,0.02l-0.288,0l0,-1.768l25.069,0c1.445,0 2.564,0.743 3.255,2.081Z" />
  </g>
</svg>
