<?xml version="1.0" encoding="UTF-8"?>
<svg width="48px" height="48px" viewBox="0 0 48 48" version="1.1" xmlns="http://www.w3.org/2000/svg" xmlns:xlink="http://www.w3.org/1999/xlink">
    <title>Icon illustration: OpenSource</title>
    <g id="Icon_48px_OpenSource" stroke="none" stroke-width="1" fill="none" fill-rule="evenodd">
        <g id="Group-18-Copy" transform="translate(1.000000, 0.000000)" fill-rule="nonzero" stroke-width="2">
            <path d="M16.4519406,40.6970647 C9.37765349,38.0260714 4.3438914,31.1671932 4.3438914,23.1272727 C4.3438914,12.7644025 12.706645,4.36363636 23.0226244,4.36363636 C33.3386038,4.36363636 41.7013575,12.7644025 41.7013575,23.1272727 C41.7013575,31.3458995 36.4413337,38.3303977 29.1185881,40.8689321 C26.4624095,33.0043185 25.3802782,28.9446074 25.8721939,28.6897986 C27.8775987,27.6510137 29.2488688,25.5500098 29.2488688,23.1272727 C29.2488688,19.6729827 26.4612842,16.8727273 23.0226244,16.8727273 C19.5839646,16.8727273 16.7963801,19.6729827 16.7963801,23.1272727 C16.7963801,25.5569059 18.1754677,27.6629718 20.1901951,28.6986433 C20.6842913,28.9526337 19.4382065,32.9521075 16.4519406,40.6970647 Z" id="Combined-Shape" stroke="#198CFF"></path>
            <path d="M8.0772913,0.600246109 C4.89076045,2.63893764 2.18284463,5.36545629 0.160759638,8.57164437" id="Oval" stroke="#FAA204" stroke-linecap="round"></path>
            <path d="M44.4052194,39.2727273 C41.2186886,41.3114188 38.5107728,44.0379375 36.4886878,47.2441255" id="Oval" stroke="#FAA204" stroke-linecap="round" transform="translate(40.446954, 43.258426) scale(-1, -1) translate(-40.446954, -43.258426) "></path>
        </g>
    </g>
</svg>
