<?xml version="1.0" encoding="UTF-8"?>
<svg width="408px" height="80px" viewBox="0 0 408 80" version="1.1" xmlns="http://www.w3.org/2000/svg" xmlns:xlink="http://www.w3.org/1999/xlink">
    <title>Illu: Home Stats</title>
    <g id="home-stats-illu" stroke="none" stroke-width="1" fill="none" fill-rule="evenodd">
        <path d="M195.486772,38.6536372 L200.039961,66.8006223 C200.216348,67.8910173 199.475398,68.9179474 198.385003,69.0943348 C198.279402,69.1114174 198.1726,69.12 198.065626,69.12 L191.455154,69.12 L191.455154,78 C191.455154,79.1045695 190.559723,80 189.455154,80 L181.935154,80 C180.830584,80 179.935154,79.1045695 179.935154,78 L179.935154,69.12 L173.324682,69.12 C172.220113,69.12 171.324682,68.2245695 171.324682,67.12 C171.324682,67.0130257 171.333265,66.9062238 171.350347,66.8006223 L178.015154,25.6 L190.528408,25.6 L193.303673,25.6 C193.747812,25.6 194.160207,25.8302338 194.393273,26.2083077 L209.778593,51.165946 C210.149559,51.7677158 210.938117,51.9548197 211.539886,51.5838543 C211.676521,51.4996246 211.796095,51.3904475 211.892372,51.2620164 L219.231161,41.4722374 C219.472883,41.1497863 219.852346,40.96 220.255339,40.96 L223.179341,40.96 L235.535154,40.96 C236.639723,40.96 237.535154,41.8554305 237.535154,42.96 L237.535154,59.2925123 C237.535154,59.8185472 237.327911,60.3234034 236.958316,60.69772 L234.335154,63.3543996 L234.335154,67.2 L234.335154,78 C234.335154,79.1045695 233.439723,80 232.335154,80 L222.895154,80 C221.790584,80 220.895154,79.1045695 220.895154,78 L220.895154,67.2 L220.895154,48.4413215 L211.562992,60.7019206 C211.134833,61.2644352 210.331734,61.3733525 209.76922,60.9451942 C209.648936,60.8536401 209.54582,60.7415035 209.464652,60.613981 L195.486772,38.6536372 Z M228.575154,34.56 C223.626683,34.56 219.615154,30.5484714 219.615154,25.6 C219.615154,20.6515286 223.626683,16.64 228.575154,16.64 C233.523625,16.64 237.535154,20.6515286 237.535154,25.6 C237.535154,30.5484714 233.523625,34.56 228.575154,34.56 Z M185.695154,19.2 C180.39322,19.2 176.095154,14.9019336 176.095154,9.6 C176.095154,4.2980664 180.39322,0 185.695154,0 C190.997088,0 195.295154,4.2980664 195.295154,9.6 C195.295154,14.9019336 190.997088,19.2 185.695154,19.2 Z" id="Combined-Shape" fill="#198CFF"></path>
        <path d="M16.3981782,70.76 L16.3981782,78.36 C16.3981782,79.4645695 15.5027477,80.36 14.3981782,80.36 L8.15817822,80.36 C7.05360872,80.36 6.15817822,79.4645695 6.15817822,78.36 L6.15817822,70.76 L2.13602475,70.76 C1.03145525,70.76 0.13602475,69.8645695 0.13602475,68.76 C0.13602475,68.6451352 0.145920164,68.5304838 0.16560124,68.4173177 L4.58994907,42.9773177 C4.75655367,42.0193412 5.58801665,41.32 6.56037258,41.32 L15.9959839,41.32 C16.9683398,41.32 17.7998028,42.0193412 17.9664074,42.9773177 L22.3907552,68.4173177 C22.5800134,69.5055525 21.8512489,70.5411653 20.763014,70.7304235 C20.6498479,70.7501046 20.5351965,70.76 20.4203317,70.76 L16.3981782,70.76 Z M11.2781782,34.92 C6.32970686,34.92 2.31817822,30.9084714 2.31817822,25.96 C2.31817822,21.0115286 6.32970686,17 11.2781782,17 C16.2266496,17 20.2381782,21.0115286 20.2381782,25.96 C20.2381782,30.9084714 16.2266496,34.92 11.2781782,34.92 Z" id="Combined-Shape" fill="#198CFF"></path>
        <g id="Group-15" transform="translate(269.940217, 0.000000)" fill="#FAA204" fill-rule="nonzero">
            <path d="M21.12,57.6 L21.12,78 C21.12,79.1045695 20.2245695,80 19.12,80 L6.48,80 C5.3754305,80 4.48,79.1045695 4.48,78 L4.48,57.6 L0.478089067,52.9063245 C0.16950231,52.5443958 3.32872892e-12,52.0843401 3.32378569e-12,51.6087162 L3.32378569e-12,27.6 C3.32365042e-12,26.4954305 0.8954305,25.6 2,25.6 L22.96,25.6 C24.0645695,25.6 24.96,26.4954305 24.96,27.6 L24.96,51.6864823 C24.96,52.1103226 24.8253513,52.5232051 24.5754814,52.8655582 L21.12,57.6 Z M12.8,19.2 C7.4980664,19.2 3.2,14.9019336 3.2,9.6 C3.2,4.2980664 7.4980664,0 12.8,0 C18.1019336,0 22.4,4.2980664 22.4,9.6 C22.4,14.9019336 18.1019336,19.2 12.8,19.2 Z" id="Combined-Shape"></path>
        </g>
        <g id="Group-15" transform="translate(55.696203, 0.000000)" fill="#198CFF">
            <path d="M20.48,69.12 L20.48,78 C20.48,79.1045695 19.5845695,80 18.48,80 L10.96,80 C9.8554305,80 8.96,79.1045695 8.96,78 L8.96,69.12 L2.34952825,69.12 C1.24495875,69.12 0.349528247,68.2245695 0.349528247,67.12 C0.349528247,67.0130257 0.358110849,66.9062238 0.37519345,66.8006223 L7.04,25.6 L20.6975306,25.6 C21.6788204,25.6 22.5151643,26.311925 22.6718654,27.2806223 L29.0648066,66.8006223 C29.241194,67.8910173 28.5002444,68.9179474 27.4098494,69.0943348 C27.3042479,69.1114174 27.197446,69.12 27.0904718,69.12 L20.48,69.12 Z M14.72,19.2 C9.4180664,19.2 5.12,14.9019336 5.12,9.6 C5.12,4.2980664 9.4180664,0 14.72,0 C20.0219336,0 24.32,4.2980664 24.32,9.6 C24.32,14.9019336 20.0219336,19.2 14.72,19.2 Z" id="Combined-Shape"></path>
        </g>
        <g id="Group-15" transform="translate(327.661736, 0.000000)" fill="#198CFF">
            <path d="M20.48,69.12 L20.48,78 C20.48,79.1045695 19.5845695,80 18.48,80 L10.96,80 C9.8554305,80 8.96,79.1045695 8.96,78 L8.96,69.12 L2.34952825,69.12 C1.24495875,69.12 0.349528247,68.2245695 0.349528247,67.12 C0.349528247,67.0130257 0.358110849,66.9062238 0.37519345,66.8006223 L7.04,25.6 L20.6975306,25.6 C21.6788204,25.6 22.5151643,26.311925 22.6718654,27.2806223 L29.0648066,66.8006223 C29.241194,67.8910173 28.5002444,68.9179474 27.4098494,69.0943348 C27.3042479,69.1114174 27.197446,69.12 27.0904718,69.12 L20.48,69.12 Z M14.72,19.2 C9.4180664,19.2 5.12,14.9019336 5.12,9.6 C5.12,4.2980664 9.4180664,0 14.72,0 C20.0219336,0 24.32,4.2980664 24.32,9.6 C24.32,14.9019336 20.0219336,19.2 14.72,19.2 Z" id="Combined-Shape"></path>
        </g>
        <path d="M128.136923,49.2494206 C124.324396,49.2494206 121.233732,46.1587566 121.233732,42.3462293 C121.233732,38.533702 124.324396,35.443038 128.136923,35.443038 C131.94945,35.443038 135.040114,38.533702 135.040114,42.3462293 C135.040114,46.1587566 131.94945,49.2494206 128.136923,49.2494206 Z M117.470355,67.5145426 L138.793789,49.2494206 L138.793789,69.3314316 C138.793789,75.2235192 134.017308,80 128.12522,80 C122.239596,80 117.468354,75.2287586 117.468354,69.343134 C117.468354,69.3392354 117.468357,69.3353367 117.468361,69.3314381 L117.470355,67.5145426 Z M124.999109,56.1526119 L117.468354,62.4282403 L117.468354,49.8769834 L124.999109,56.1526119 Z" id="Combined-Shape" fill="#198CFF"></path>
        <path d="M404.536,66.92 L404.536,77.72 C404.536,78.8245695 403.640569,79.72 402.536,79.72 L395.16,79.72 C394.055431,79.72 393.16,78.8245695 393.16,77.72 L393.16,66.92 L390.568269,64.2628374 C390.203928,63.889299 390,63.388161 390,62.8663615 L390,42.68 C390,41.5754305 390.895431,40.68 392,40.68 L405.696,40.68 C406.800569,40.68 407.696,41.5754305 407.696,42.68 L407.696,62.8608564 C407.696,63.38194 407.492629,63.8824488 407.129175,64.2558508 L404.536,66.92 Z M398.848,34.28 C393.961385,34.28 390,30.2684714 390,25.32 C390,20.3715286 393.961385,16.36 398.848,16.36 C403.734615,16.36 407.696,20.3715286 407.696,25.32 C407.696,30.2684714 403.734615,34.28 398.848,34.28 Z" id="Combined-Shape" fill="#198CFF"></path>
    </g>
</svg>
