<?xml version="1.0" encoding="UTF-8"?>
<svg width="40px" height="40px" viewBox="0 0 40 40" version="1.1" xmlns="http://www.w3.org/2000/svg" xmlns:xlink="http://www.w3.org/1999/xlink">
    <title>Icon illustration: Swirl</title>
    <g id="Icon_40px_Header" stroke="none" stroke-width="1" fill="none" fill-rule="evenodd">
        <g id="Group-13-Copy" fill-rule="nonzero">
            <rect id="Rectangle" x="0" y="0" width="40" height="40"></rect>
            <g id="Group-17" transform="translate(0.000000, 14.000000)" fill="#198CFF">
                <path d="M8.91731133e-13,11.7245562 L8.91731133e-13,10.0052579 C2.20689655,10.0052579 8.93103448,10.0403456 11.6551724,10.0403456 C17.5862069,10.0403456 23.5172414,10.0052579 29.4482759,10.0052579 C31.6206897,10.0052579 33.4482759,8.63683685 34,6.5315737 C34.3448276,5.23332808 34.1724138,4.00525791 33.2758621,2.95262633 C32.4827586,2.04034563 31.5172414,1.65438071 30.3448276,1.72455615 C29.2068966,1.82981931 28.1724138,2.84736317 28,4.00525791 C27.8965517,4.91753861 28.1724138,5.61929299 28.9310345,6.11052106 C29.4827586,6.46139826 30.1034483,6.49648598 30.7241379,6.21578422 C30.9310345,6.11052106 31.1034483,5.97017019 31.2413793,5.75964387 C31.4827586,5.33859124 31.9655172,5.19824036 32.3448276,5.4438544 C32.7586207,5.65438071 32.8965517,6.14560878 32.6896552,6.60174913 C32.3793103,7.23332808 31.862069,7.61929299 31.2413793,7.86490703 C29.1034483,8.70701229 26.6896552,7.30350352 26.3448276,4.98771405 C26.1034483,3.30350352 26.9310345,1.51402984 28.4137931,0.636836854 C29.6206897,-0.100005252 30.9310345,-0.17018069 32.2068966,0.285959661 C34.1034483,0.952626327 35.3103448,2.32104738 35.7241379,4.32104738 C36,5.75964387 35.7241379,7.12806492 35.0344828,8.39122282 C34.0344828,10.2157842 32.4827586,11.2684158 30.4482759,11.619293 C30.1034483,11.6894684 29.7586207,11.6894684 29.4137931,11.6894684 C25.8965517,11.7245562 4.03448276,11.7245562 8.91731133e-13,11.7245562 L8.91731133e-13,11.7245562 Z" id="Path"></path>
                <path d="M13.9310345,8.37367896 L5.05172414,8.37367896 L5.05172414,6.93508247 L20.4482759,6.93508247 C21.5656185,6.93508247 22.2705954,6.42826272 22.5422045,5.41511695 C22.6985878,4.77860976 22.4969058,3.85023272 22.0795026,3.33441353 C21.7514597,2.94498248 21.102764,2.72495703 20.4626216,2.7592387 C19.9759606,2.78674975 19.4853598,3.27671296 19.4284352,3.79686002 C19.3736433,4.18713237 19.5016748,4.47374335 19.8152525,4.68749722 C20.0648727,4.82860806 20.3241527,4.84943665 20.5733894,4.73806055 C20.8646105,4.63928379 21.1612531,4.63928379 21.4001921,4.8830569 C21.7908531,5.33026093 21.5553643,5.92931129 21.0233976,6.14579786 C19.6911784,6.66411226 18.1798913,5.78349123 17.9857659,4.36106243 C17.8328393,3.34960022 18.3569942,2.26020326 19.249732,1.70733871 C19.9358959,1.30311655 21.0633574,1.25812669 21.9093692,1.54507809 C22.9650297,1.90313837 23.7265368,2.94662576 24.0108102,4.22763832 C24.1896543,5.02835758 24.0376662,5.85962568 23.603856,6.66213657 C23.0428306,7.66115541 22.302784,8.12970735 21.0507197,8.36856861 C20.8839629,8.40250509 20.7424293,8.40876668 20.4137931,8.40876668 L14.6206897,8.40876668 L14.5781727,8.40518613 C14.4250797,8.379223 14.2779714,8.37367896 13.9310345,8.37367896 Z" id="Path"></path>
            </g>
        </g>
    </g>
</svg>
