<?xml version="1.0" encoding="UTF-8"?>
<svg width="40px" height="40px" viewBox="0 0 40 40" version="1.1" xmlns="http://www.w3.org/2000/svg" xmlns:xlink="http://www.w3.org/1999/xlink">
    <title>Icon illustration: Join the Community</title>
    <g id="Icon_40px_JoinCommunity" stroke="none" stroke-width="1" fill="none" fill-rule="evenodd">
        <g id="Group-12-Copy">
            <rect id="Rectangle" fill-rule="nonzero" x="0" y="0" width="40" height="40"></rect>
            <g id="high-five">
                <path d="M33.0846875,38.6664063 C32.939375,38.5210937 32.7385156,38.4375 32.5323437,38.4375 C32.326875,38.4375 32.1253125,38.5210937 31.98,38.6664063 C31.8347656,38.8117188 31.7510937,39.0132812 31.7510937,39.21875 C31.7510937,39.4242188 31.8346875,39.6257812 31.98,39.7710937 C32.1253125,39.9164063 32.326875,40 32.5323437,40 C32.7378125,40 32.939375,39.9164063 33.0846875,39.7710937 C33.2307812,39.6257812 33.3135937,39.4242188 33.3135937,39.21875 C33.3135937,39.0132812 33.2307812,38.8117188 33.0846875,38.6664063 Z" id="Path" fill="#FAA204"></path>
                <path d="M39.4546094,13.1135156 C38.983125,12.4254688 38.2710938,11.966875 37.4496875,11.8220313 C36.1199219,11.5875781 34.8198438,12.2541406 34.2039063,13.3957813 L34.2039063,5.1521875 C34.2039063,3.481875 32.8449219,2.12304687 31.1746875,2.12304687 C30.6283594,2.12304687 30.1159375,2.26914062 29.6728906,2.52320312 C29.43125,1.09304687 28.1846094,0 26.6867188,0 C25.1888281,0 23.9422656,1.09304687 23.700625,2.52320312 C23.2575781,2.26914062 22.7451563,2.12304688 22.1988281,2.12304688 C20.6285938,2.12304688 19.3338281,3.32414063 19.184375,4.85578125 C18.7478906,4.61171875 18.2455469,4.47195312 17.7109375,4.47195312 C16.040625,4.47195312 14.6817969,5.83085937 14.6817969,7.50109375 C14.6817969,7.93257813 15.0316406,8.28234375 15.4630469,8.28234375 C15.8944531,8.28234375 16.2442969,7.93257813 16.2442969,7.50109375 C16.2442969,6.69234375 16.9022656,6.03445313 17.7109375,6.03445313 C18.4682813,6.03445313 19.0933594,6.6115625 19.1696875,7.34914063 L19.1696875,9.43195313 C19.1696875,9.8634375 19.5195312,10.2132031 19.9509375,10.2132031 C20.3823438,10.2132031 20.7321875,9.8634375 20.7321875,9.43195313 L20.7321875,5.15226563 C20.7321875,4.34351563 21.3901563,3.685625 22.1988281,3.685625 C22.9561719,3.685625 23.58125,4.26273438 23.6575781,5.0003125 L23.6575781,11.0783594 C23.6575781,11.1142188 23.6655469,11.3739063 23.6655469,11.3739063 C23.6655469,11.8053906 24.0153906,12.1551563 24.4467969,12.1551563 C24.8782031,12.1551563 25.2280469,11.8053906 25.2280469,11.3739063 L25.2280469,5.1521875 C25.2280469,5.08226562 25.2247656,5.01304687 25.2200781,4.94429687 L25.2200781,3.02914063 C25.2200781,2.22039063 25.8780469,1.5625 26.6867188,1.5625 C27.4953906,1.5625 28.1533594,2.22046875 28.1533594,3.02914063 L28.1533594,4.94429688 C28.1486719,5.01304687 28.1453906,5.08226563 28.1453906,5.1521875 L28.1453906,16.1391406 C28.1453906,16.570625 28.4952344,16.9203906 28.9266406,16.9203906 C29.3580469,16.9203906 29.7078906,16.570625 29.7078906,16.1391406 L29.7158594,5.00015625 C29.7921875,4.26257813 30.4172656,3.68546875 31.1746875,3.68546875 C31.9834375,3.68546875 32.6413281,4.3434375 32.6413281,5.15210938 L32.6413281,16.7085938 C32.6413281,17.28 33.053125,17.7445313 33.6203906,17.8130469 C34.1871875,17.881875 34.698125,17.5285156 34.8342969,16.9734375 L35.4423438,14.4928125 C35.6319531,13.7197656 36.3936719,13.2222656 37.1782813,13.3607031 C37.5828125,13.4320313 37.9334375,13.6578906 38.1657031,13.9967187 C38.3978906,14.3355469 38.4820313,14.7441406 38.4025,15.1471875 L37.2254688,21.1161719 C36.8303906,23.1197656 35.8571875,24.9409375 34.41125,26.3828906 L31.9810156,28.80625 C31.8339844,28.9528125 31.7514063,29.151875 31.7514063,29.3594531 L31.7514063,36.328125 C31.7514063,36.7596094 32.10125,37.109375 32.5326563,37.109375 C32.9640625,37.109375 33.3139063,36.7596094 33.3139063,36.328125 L33.3139063,29.68375 L35.5146094,27.489375 C37.1814063,25.8272656 38.303125,23.7279687 38.7585938,21.4185156 L39.935625,15.4495312 C40.0969531,14.6311719 39.9260937,13.8015625 39.4546094,13.1135156 Z" id="Path" fill="#198CFF"></path>
                <path d="M23.17125,24.140625 C22.7398438,24.140625 22.39,24.4903906 22.39,24.921875 L22.39,27.213125 C22.39,29.7825781 21.3879688,32.196875 19.5684375,34.01125 L18.0880469,35.4874219 C17.9410156,35.6339844 17.8584375,35.8330469 17.8584375,36.040625 L17.8584375,39.21875 C17.8584375,39.6502344 18.2082813,40 18.6396875,40 C19.0710938,40 19.4209375,39.6502344 19.4209375,39.21875 L19.4209375,36.3649219 L20.6717188,35.1177344 C22.7874219,33.008125 23.9525781,30.2008594 23.9525781,27.2132031 L23.9525781,24.921875 C23.9525,24.4903906 23.6027344,24.140625 23.17125,24.140625 Z" id="Path" fill="#198CFF"></path>
                <path d="M23.7236719,21.5960938 C23.5783594,21.4507812 23.3767969,21.3671875 23.1713281,21.3671875 C22.9658594,21.3671875 22.7642969,21.4507812 22.6190625,21.5960938 C22.47375,21.7414063 22.3900781,21.9429687 22.3900781,22.1484375 C22.3900781,22.3539062 22.4736719,22.5554687 22.6190625,22.7007812 C22.7642969,22.8460938 22.9658594,22.9296875 23.1713281,22.9296875 C23.3767969,22.9296875 23.5783594,22.8460938 23.7236719,22.7007812 C23.8689844,22.5554687 23.9525781,22.3539062 23.9525781,22.1484375 C23.9525781,21.9429687 23.8690625,21.7414063 23.7236719,21.5960938 Z" id="Path" fill="#FAA204"></path>
                <path d="M21.0525781,12.539375 C20.5645313,12.539375 20.1046094,12.6610938 19.7007031,12.8749219 C19.5269531,11.4407813 18.3030469,10.325625 16.8227344,10.325625 C16.3225,10.325625 15.8514844,10.4529688 15.4403125,10.6769531 C15.1834375,9.33898437 14.0047656,8.3246875 12.5929688,8.3246875 C11.1811719,8.3246875 10.0024219,9.33898437 9.745625,10.6769531 C9.33445313,10.4529688 8.86335938,10.325625 8.363125,10.325625 C6.76414063,10.325625 5.46328125,11.6264844 5.46328125,13.2255469 L5.46328125,20.8273437 C4.84507813,19.8247656 3.65625,19.2534375 2.44125,19.4675 C1.65507813,19.6060937 0.97359375,20.0451562 0.522265625,20.7036719 C0.0709375,21.3621875 -0.0925,22.1561719 0.061875,22.939375 L1.17125,28.5650781 C1.60226563,30.7505469 2.66375,32.7370312 4.24109375,34.3099219 L6.30195313,36.3649219 L6.30195313,39.21875 C6.30195313,39.6502344 6.65179688,40 7.08320313,40 C7.51460938,40 7.86445313,39.6502344 7.86445313,39.21875 L7.86445313,36.040625 C7.86445313,35.8330469 7.78179688,35.6339844 7.63484375,35.4874219 L5.34445313,33.2034375 C3.98789063,31.8507031 3.07492188,30.1422656 2.70429688,28.2627344 L1.59492188,22.6370312 C1.52242188,22.2691406 1.59921875,21.8961719 1.81117188,21.586875 C2.02320313,21.2775781 2.34335938,21.0713281 2.71257813,21.00625 C3.42820313,20.88 4.12414063,21.3339844 4.2971875,22.0396875 L4.8703125,24.3776562 C5.00398438,24.923125 5.50492188,25.2705469 6.06335938,25.2028906 C6.62101563,25.1355469 7.02570313,24.6789844 7.02570313,24.1173437 L7.02570313,13.2254688 C7.02570313,12.4880469 7.62570313,11.8880469 8.363125,11.8880469 C9.053125,11.8880469 9.62265625,12.4134375 9.69296875,13.0852344 L9.69296875,18.810625 C9.69296875,19.2421094 10.0428125,19.591875 10.4742188,19.591875 C10.4754688,19.591875 10.4767188,19.5917187 10.4779688,19.5917187 C10.4792188,19.5917187 10.4804688,19.591875 10.4817188,19.591875 C10.913125,19.591875 11.2629688,19.2421094 11.2629688,18.810625 L11.2629688,13.2253906 C11.2629688,13.1589844 11.2599219,13.0932813 11.2554688,13.0279688 L11.2554688,11.2244531 C11.2554688,10.4870313 11.8554688,9.88703125 12.5928906,9.88703125 C13.3303125,9.88703125 13.9303125,10.4869531 13.9303125,11.2244531 L13.9303125,13.0279688 C13.9258594,13.0932813 13.9228125,13.1589844 13.9228125,13.2253906 L13.9228125,18.810625 C13.9228125,19.2421094 14.2726563,19.591875 14.7040625,19.591875 C14.7053125,19.591875 14.7065625,19.5917187 14.7078125,19.5917187 C14.7090625,19.5917187 14.7103125,19.591875 14.7115625,19.591875 C15.1429688,19.591875 15.4928125,19.2421094 15.4928125,18.810625 L15.4928125,13.0852344 C15.563125,12.4134375 16.1325781,11.8880469 16.8226563,11.8880469 C17.5600781,11.8880469 18.1600781,12.4879688 18.1600781,13.2254688 L18.1526563,18.8107031 C18.1526563,19.2421875 18.5025,19.5919531 18.9339063,19.5919531 C18.9351563,19.5919531 18.9364063,19.5917969 18.9376562,19.5917969 C18.9389063,19.5917969 18.9401563,19.5919531 18.9414063,19.5919531 C19.3728125,19.5919531 19.7226563,19.2421875 19.7226563,18.8107031 L19.7226563,15.2990625 C19.7929688,14.6272656 20.3625,14.101875 21.0525781,14.101875 C21.79,14.101875 22.39,14.7017969 22.39,15.4392969 L22.39,19.0885937 C22.39,19.5200781 22.7398438,19.8698437 23.17125,19.8698437 C23.6026562,19.8698437 23.9525,19.5200781 23.9525,19.0885937 L23.9525,15.4392969 C23.9525,13.8403125 22.6516406,12.539375 21.0525781,12.539375 Z" id="Path" fill="#198CFF"></path>
                <path d="M11.6309375,4.35023438 L7.5115625,0.230859375 C7.20648437,-0.07421875 6.71195312,-0.07421875 6.40664062,0.230859375 C6.1015625,0.5359375 6.1015625,1.030625 6.40664062,1.33570313 L10.5260937,5.45507813 C10.6786719,5.60765625 10.8785937,5.68390625 11.0785156,5.68390625 C11.2784375,5.68390625 11.4783594,5.60757813 11.6309375,5.45507813 C11.9360156,5.15 11.9360156,4.6553125 11.6309375,4.35023438 Z" id="Path" fill="#FAA204"></path>
                <path d="M8.86742188,6.44382812 L6.96101562,6.44382812 C6.52960937,6.44382812 6.17976562,6.79359375 6.17976562,7.22507812 C6.17976562,7.6565625 6.52960937,8.00632812 6.96101562,8.00632812 L8.86742188,8.00632812 C9.29882813,8.00632812 9.64867188,7.6565625 9.64867188,7.22507812 C9.64867188,6.79359375 9.29882813,6.44382812 8.86742188,6.44382812 Z" id="Path" fill="#FAA204"></path>
                <path d="M13.3651562,0 C12.93375,0 12.5839063,0.349765625 12.5839063,0.78125 L12.5839063,2.75140625 C12.5839063,3.18289062 12.9336719,3.53265625 13.3651562,3.53265625 C13.7965625,3.53265625 14.1464062,3.18289062 14.1464062,2.75140625 L14.1464062,0.78125 C14.1464062,0.349765625 13.7965625,0 13.3651562,0 Z" id="Path" fill="#FAA204"></path>
            </g>
        </g>
    </g>
</svg>
