<?xml version="1.0" encoding="UTF-8"?>
<svg width="48px" height="48px" viewBox="0 0 48 48" version="1.1" xmlns="http://www.w3.org/2000/svg" xmlns:xlink="http://www.w3.org/1999/xlink">
    <title>Icon illustration: Historical</title>
    <g id="Icon_48px_Historical" stroke="none" stroke-width="1" fill="none" fill-rule="evenodd">
        <g id="clock-copy" transform="translate(24.000000, 24.000000) scale(-1, 1) translate(-24.000000, -24.000000) ">
            <path d="M17.0161449,29.5237666 C23.9243783,29.5237666 29.5237666,23.9244748 29.5237666,17.0161449 C29.5237666,10.1078149 23.8517505,4.58124748 17.0161449,4.58124748 C10.1805392,4.58124748 4.50852314,10.1806358 4.50852314,17.0888692 C4.50852314,23.9971026 10.1079115,29.5237666 17.0161449,29.5237666 Z M17.0161449,6.03563783 C23.124507,6.03563783 28.0693763,10.980507 28.0693763,17.0888692 C28.0693763,23.1972314 23.124507,28.1421006 17.0161449,28.1421006 C10.9077827,28.1421006 5.96291348,23.124507 5.96291348,17.0888692 C5.96291348,11.0532314 10.9077827,6.03563783 17.0161449,6.03563783 Z" id="Shape" fill="#198CFF" fill-rule="nonzero"></path>
            <path d="M17.0161449,19.4158551 C17.2343179,19.4158551 17.3797666,19.4158551 17.5978431,19.3431308 L19.8521046,23.0517827 C20.0702777,23.4154044 20.5065272,23.4881288 20.8701489,23.2699557 C21.2337706,23.0517827 21.306495,22.6155332 21.0883219,22.2519115 L18.8341569,18.5432596 C19.1977787,18.1069135 19.4159517,17.5979396 19.4159517,17.0161449 C19.4159517,15.9981006 18.6888048,15.0527807 17.7433883,14.7618833 L17.7433883,10.6896097 C17.7433883,10.2532636 17.4524909,9.96246278 17.0162414,9.96246278 C16.5798954,9.96246278 16.2890946,10.2533602 16.2890946,10.6896097 L16.2890946,14.7618833 C15.3437746,15.0527807 14.6165312,15.9253763 14.6165312,17.0161449 C14.6164346,18.3978109 15.7072032,19.4158551 17.0161449,19.4158551 Z M17.0161449,16.1435493 C17.5252153,16.1435493 17.9614648,16.5798954 17.9614648,17.0888692 C17.9614648,17.5978431 17.5251187,18.0341891 17.0161449,18.0341891 C16.507171,18.0341891 16.0708249,17.5978431 16.0708249,17.0888692 C16.0708249,16.5798954 16.507171,16.1435493 17.0161449,16.1435493 Z" id="Shape" fill="#198CFF" fill-rule="nonzero"></path>
            <path d="M17.0161449,9.0898672 C17.4524909,9.0898672 17.7432918,8.79896982 17.7432918,8.36272032 L17.7432918,7.27185513 C17.7432918,6.83550905 17.4523944,6.54470825 17.0161449,6.54470825 C16.5798954,6.54470825 16.288998,6.83560563 16.288998,7.27185513 L16.288998,8.36262374 C16.288998,8.72624547 16.5798954,9.0898672 17.0161449,9.0898672 Z" id="Path" fill="#198CFF"></path>
            <path d="M17.0161449,25.0152435 C16.5797988,25.0152435 16.288998,25.3061408 16.288998,25.7423903 L16.288998,26.833159 C16.288998,27.269505 16.5798954,27.5603058 17.0161449,27.5603058 C17.4523944,27.5603058 17.7432918,27.2694085 17.7432918,26.833159 L17.7432918,25.7423903 C17.7433883,25.3787686 17.3797666,25.0152435 17.0161449,25.0152435 Z" id="Path" fill="#198CFF"></path>
            <path d="M9.01714286,17.0888692 C9.01714286,16.6525231 8.72624547,16.3617223 8.28999598,16.3617223 L7.19913078,16.3617223 C6.76278471,16.3617223 6.4719839,16.6526197 6.4719839,17.0888692 C6.4719839,17.5251187 6.76288129,17.8160161 7.19913078,17.8160161 L8.2898994,17.8160161 C8.65352113,17.8161127 9.01714286,17.4524909 9.01714286,17.0888692 Z" id="Path" fill="#198CFF"></path>
            <path d="M24.9425191,17.0888692 C24.9425191,17.5252153 25.2334165,17.8160161 25.669666,17.8160161 L26.7604346,17.8160161 C27.1967807,17.8160161 27.4875815,17.5251187 27.4875815,17.0888692 C27.4875815,16.6526197 27.1966841,16.3617223 26.7604346,16.3617223 L25.669666,16.3617223 C25.3060443,16.3617223 24.9425191,16.6526197 24.9425191,17.0888692 Z" id="Path" fill="#198CFF"></path>
            <path d="M32.5052716,17.0888692 C32.5052716,19.7794769 31.8508491,22.3973602 30.5419074,24.6516217 C30.3237344,25.0152435 30.4691831,25.451493 30.8328048,25.669666 C31.1964266,25.887839 31.6326761,25.7423903 31.8508491,25.3787686 C33.2325151,22.8336097 34.0323863,19.9975533 34.0323863,17.0888692 C34.0323863,13.6711147 33.0143421,10.3259879 31.0508813,7.49002817 C30.8327082,7.12640644 30.3964588,7.05368209 30.032837,7.27185513 C29.6692153,7.49002817 29.5964909,7.92627767 29.814664,8.2898994 C31.5598551,10.9077827 32.5052716,13.8892877 32.5052716,17.0888692 Z" id="Path" fill="#198CFF"></path>
            <path d="M25.5969416,30.8327082 C25.3787686,30.4690865 24.9425191,30.3236378 24.5788974,30.5418109 C22.2519115,31.8507525 19.6340282,32.5051751 17.0161449,32.5051751 C13.525666,32.5051751 10.2532636,31.3416821 7.56275252,29.2328692 L8.87169416,29.3055936 C9.2353159,29.3055936 9.59884105,29.0146962 9.59884105,28.5784467 C9.59884105,28.1421972 9.30794366,27.8512998 8.87169416,27.8512998 L5.52666398,27.7785755 C5.09031791,27.7785755 4.72679276,28.1421972 4.7995171,28.651171 L5.52666398,31.8507525 C5.59938833,32.2143742 6.03573441,32.5051751 6.39925956,32.4325473 C6.76288129,32.3598229 7.05368209,31.9962012 6.98105433,31.5599517 L6.76288129,30.4691831 C9.74438632,32.7234447 13.3075895,33.959662 17.0889658,33.959662 C19.9250221,34.0323863 22.7609819,33.3052394 25.3061408,31.8508491 C25.669666,31.6325795 25.8151147,31.19633 25.5969416,30.8327082 Z" id="Path" fill="#FAA204"></path>
            <path d="M1.45439034,17.0888692 C1.45439034,8.50807243 8.43534809,1.52711469 17.0161449,1.52711469 C20.5066237,1.52711469 23.7790262,2.69060765 26.4695372,4.79942052 L24.8696982,4.72669618 C24.4333521,4.72669618 24.1425513,5.01759356 24.069827,5.38111871 C24.069827,5.81746479 24.3607243,6.10826559 24.7242495,6.18098994 L28.5056258,6.39916298 C28.5056258,6.39916298 28.5056258,6.39916298 28.5783501,6.39916298 C29.0874205,6.39916298 29.3782213,5.9628169 29.305497,5.5265674 L28.3601771,1.89063984 C28.2874527,1.52701811 27.8511066,1.2362173 27.4875815,1.38156942 C27.1239598,1.45429376 26.833159,1.89063984 26.9785111,2.25416499 L27.2694085,3.56310664 C24.3607243,1.30894165 20.7247968,0.0727243461 16.9434205,0.0727243461 C7.63547686,0.0727243461 0,7.70820121 0,17.0888692 C0,20.5793481 1.09076861,23.9243783 3.05422938,26.833159 C3.27240241,27.1967807 3.70865191,27.269505 4.07227364,26.9786076 C4.43589537,26.7604346 4.50861972,26.3241851 4.21772233,25.9605634 C2.39971026,23.3426801 1.45439034,20.2885473 1.45439034,17.0888692 Z" id="Path" fill="#FAA204"></path>
            <path d="M47.3398793,34.3959115 L45.2310664,34.1050141 C45.0128934,33.2324185 44.6492716,32.3597264 44.2130221,31.6325795 L45.5219638,29.9600161 C45.7401368,29.6691187 45.6674125,29.2328692 45.4492394,28.9419718 L43.7039517,27.1967807 C43.4130543,26.9058833 43.0495292,26.9058833 42.7586318,27.1240563 L41.0133441,28.432998 C40.2134728,27.9966519 39.413505,27.6331268 38.5409095,27.4149537 L38.2500121,25.3061408 C38.1772877,24.9425191 37.8863903,24.6517183 37.5228652,24.6517183 L35.0504306,24.6517183 C34.6868089,24.6517183 34.396008,24.9426157 34.3232837,25.3061408 L34.0323863,27.4149537 C33.1597907,27.6331268 32.2870986,27.9967485 31.5599517,28.432998 L29.8873883,27.1240563 C29.5964909,26.9058833 29.1602414,26.9058833 28.9420684,27.1967807 L27.1967807,28.9420684 C26.9058833,29.1602414 26.9058833,29.5964909 27.1240563,29.8873883 L28.432998,31.5599517 C27.9966519,32.3598229 27.6331268,33.1597907 27.4149537,34.0323863 L25.3061408,34.3232837 C24.9425191,34.396008 24.6517183,34.6869054 24.6517183,35.0504306 L24.6517183,37.5228652 C24.6517183,37.8864869 24.9426157,38.1772877 25.3061408,38.2500121 L27.4149537,38.5409095 C27.6331268,39.413505 27.9967485,40.2861972 28.432998,41.0133441 L27.1240563,42.6859074 C26.9058833,42.9768048 26.9058833,43.4130543 27.1967807,43.6312274 L28.9420684,45.3765151 C29.2329658,45.6674125 29.5964909,45.6674125 29.8873883,45.4492394 L31.5599517,44.1402978 C32.3598229,44.5766439 33.1597907,44.940169 34.0323863,45.1583421 L34.3232837,47.2671549 C34.396008,47.6307767 34.6869054,47.9215775 35.0504306,47.9215775 L37.5228652,47.9215775 C37.8864869,47.9215775 38.1772877,47.6306801 38.2500121,47.2671549 L38.5409095,45.1583421 C39.413505,44.940169 40.2861972,44.5765473 41.0133441,44.1402978 L42.6859074,45.4492394 C42.8313561,45.5219638 42.9768048,45.5946881 43.1222535,45.5946881 C43.3404266,45.5946881 43.5585996,45.5219638 43.7039517,45.3765151 L45.4492394,43.6312274 C45.7401368,43.34033 45.7401368,42.9768048 45.5219638,42.6859074 L44.2130221,41.0133441 C44.6493682,40.2134728 45.0128934,39.413505 45.2310664,38.5409095 L47.3398793,38.2500121 C47.703501,38.1772877 47.9943018,37.8863903 47.9943018,37.5228652 L47.9943018,35.0504306 C47.9943018,34.7595332 47.7034044,34.3959115 47.3398793,34.3959115 Z M46.540008,36.9410704 L44.5038229,37.2319678 C44.2129256,37.3046922 43.9221247,37.5228652 43.9221247,37.8137626 C43.7039517,38.9045312 43.34033,39.8498511 42.6859074,40.7225433 C42.5404588,41.0134406 42.5404588,41.304338 42.6859074,41.5951388 L43.9221247,43.1949779 L43.0495292,44.0675734 L41.4496901,42.8313561 C41.2315171,42.6131831 40.867992,42.6131831 40.5770946,42.8313561 C39.704499,43.4130543 38.6864547,43.8494004 37.6683139,44.0675734 C37.3774165,44.1402978 37.1592435,44.3584708 37.0866157,44.721996 L36.8684427,46.6126358 L35.6322254,46.6126358 L35.341328,44.5765473 C35.2686036,44.2856499 35.0504306,43.9948491 34.7596298,43.9221247 C33.7415855,43.7039517 32.7235412,43.3404266 31.8508491,42.6859074 C31.5599517,42.5404588 31.2691509,42.5404588 30.9782535,42.6859074 L29.3784145,43.9221247 L28.5058189,43.0495292 L29.7420362,41.4496901 C29.9602093,41.2315171 29.9602093,40.7952676 29.7420362,40.5770946 C29.1602414,39.704499 28.723992,38.7591791 28.5785433,37.6683139 C28.5058189,37.3774165 28.2876459,37.1592435 27.9967485,37.0865191 L25.96066,36.7956217 L25.96066,35.7048531 L27.9967485,35.4139557 C28.2876459,35.3412314 28.5785433,35.1230584 28.5785433,34.8322575 C28.7967163,33.7414889 29.1602414,32.796169 29.8147606,31.9234769 C29.9602093,31.6325795 29.9602093,31.3417787 29.8147606,31.0508813 L28.5785433,29.4510423 L29.4511388,28.5784467 L31.0509779,29.7419396 C31.2691509,29.9601127 31.7054004,29.9601127 31.9962978,29.7419396 C32.8688934,29.1602414 33.8142133,28.7238954 34.9050785,28.5784467 C35.1959759,28.5057223 35.4141489,28.2875493 35.4868732,27.9240241 L35.7777706,25.8879356 L37.0139879,25.8879356 L37.3048853,27.9240241 C37.3776097,28.2149215 37.5957827,28.5058189 37.8865835,28.5784467 C38.9046278,28.7966197 39.922672,29.1602414 40.7953642,29.814664 C41.0862616,29.9601127 41.3770624,29.9601127 41.6679598,29.814664 L43.2677988,28.5784467 L44.1403944,29.4510423 L42.9041771,31.0508813 C42.686004,31.2690543 42.686004,31.6325795 42.9041771,31.9234769 C43.4859718,32.7960724 43.9222213,33.8141167 44.1403944,34.8322575 C44.2131187,35.1231549 44.4312918,35.341328 44.7220926,35.4139557 L46.540008,35.7048531 L46.540008,36.9410704 L46.540008,36.9410704 Z" id="Shape" fill="#198CFF" fill-rule="nonzero"></path>
            <path d="M36.2866479,30.3963622 C33.0143421,30.3963622 30.3237344,33.0869698 30.3237344,36.3592757 C30.3237344,39.6315815 33.0143421,42.3221891 36.2866479,42.3221891 C39.5589537,42.3221891 42.2495614,39.6315815 42.2495614,36.3592757 C42.2495614,33.0869698 39.5589537,30.3963622 36.2866479,30.3963622 Z M36.2866479,40.8678954 C33.8142133,40.8678954 31.7781247,38.8318068 31.7781247,36.3593722 C31.7781247,33.8869376 33.8142133,31.8508491 36.2866479,31.8508491 C38.7590825,31.8508491 40.795171,33.8869376 40.795171,36.3593722 C40.795171,38.8318068 38.7590825,40.8678954 36.2866479,40.8678954 Z" id="Shape" fill="#198CFF" fill-rule="nonzero"></path>
        </g>
    </g>
</svg>
