<?xml version="1.0" encoding="UTF-8"?>
<svg width="40px" height="40px" viewBox="0 0 40 40" version="1.1" xmlns="http://www.w3.org/2000/svg" xmlns:xlink="http://www.w3.org/1999/xlink">
    <title>Icon illustration: Support</title>
    <g id="Icon_40px_Support" stroke="none" stroke-width="1" fill="none" fill-rule="evenodd">
        <g id="Group-11">
            <rect id="Rectangle" fill-rule="nonzero" x="0" y="0" width="40" height="40"></rect>
            <g id="Group-10">
                <g id="handshake" transform="translate(0.000000, 0.975610)" fill="#198CFF">
                    <path d="M27.4310156,22.0028963 L22.0003125,18.7474085 C21.9341406,18.7076982 21.8580469,18.6807927 21.78125,18.6690549 L20.0810156,18.376372 C19.7664844,18.3221037 19.4575781,18.5332317 19.4021094,18.8400915 C19.3466406,19.1469512 19.5628125,19.4483232 19.8773438,19.502439 L21.4817969,19.7786585 L26.8175,22.9772104 C27.0779688,23.1333841 27.4352344,23.0575457 27.608125,22.8121189 C27.7935938,22.5487043 27.7098438,22.1701982 27.4310156,22.0028963 Z" id="Path"></path>
                    <path d="M39.8057031,22.1862043 C39.5846094,21.9554878 39.2138281,21.9432927 38.9773437,22.1588415 L36.6016406,24.325 L25.7158594,13.846189 L39.7782031,0.988871951 C40.0142969,0.772942073 40.0263281,0.411128049 39.8050781,0.180792683 C39.5838281,-0.0495426829 39.2128906,-0.0612804878 38.9767969,0.154573171 L24.4697656,13.4184451 C24.2305469,13.6371189 24.2255469,14.0179116 24.4589063,14.2426067 L25.4217969,15.1693598 L25.1144531,15.4341463 L18.6784375,14.8934451 C18.5791406,14.8852134 18.4759375,14.9019055 18.3853125,14.9427591 L13.2858594,17.2086128 C13.2710156,17.204878 13.2561719,17.2012195 13.2407812,17.1985518 L10.3075,16.6935213 L10.5446875,16.1019817 C10.6619531,15.8094512 10.5154688,15.4794207 10.2165625,15.3628811 L0.8403125,11.7038872 C0.5396875,11.5864329 0.19875,11.7291921 0.07859375,12.0224085 C-0.041640625,12.3155488 0.10453125,12.6483232 0.405078125,12.7655488 L9.24125,16.213872 L4.0340625,29.1962652 L0.81828125,28.085061 C0.513125,27.9797256 0.17828125,28.1354421 0.070234375,28.4331555 C-0.0378125,28.7307927 0.121953125,29.0575457 0.42703125,29.1629573 L4.1775,30.4588415 C4.471875,30.5605945 4.80515625,30.4117378 4.91882813,30.1282012 L5.7890625,27.9585366 L8.06929688,29.2051829 L7.8178125,29.6028963 C7.10523438,30.7296494 7.465,32.2119665 8.62,32.9072409 C9.23078125,33.2749238 9.98898438,33.3621189 10.6714844,33.1465701 C10.7809375,33.8404726 11.1989063,34.4596799 11.8117969,34.8285823 C12.4225781,35.1962652 13.1807031,35.2834604 13.8632812,35.0679116 C13.9728125,35.761814 14.390625,36.3809451 15.0035156,36.7499238 C15.6161719,37.11875 16.3703906,37.205564 17.0551562,36.989939 C17.1648437,37.6835366 17.5825781,38.302439 18.1953125,38.6712652 C19.0858594,39.2073171 20.2646094,39.1272104 21.0673438,38.4708079 C21.2696875,38.3053354 21.4438281,38.1078506 21.5824219,37.8886433 L21.9821875,37.2566311 L22.3113281,37.4538872 C23.2030469,37.9884146 24.3814844,37.9060976 25.1829688,37.248247 C25.385,37.0823933 25.55875,36.8846037 25.6969531,36.6651677 C25.9716406,36.2289634 26.0853125,35.7400915 26.0553125,35.2641768 C26.2414063,35.3078506 26.431875,35.3313262 26.6240625,35.3313262 C27.4751563,35.3313262 28.2802344,34.8934451 28.725625,34.1862805 C28.9939063,33.7602134 29.1164844,33.2744665 29.0853906,32.7855183 C29.2710156,32.8289634 29.4610938,32.8522866 29.6526563,32.8522866 C30.50375,32.8522866 31.3089063,32.4144055 31.7542188,31.7072409 C32.0227344,31.2808689 32.1452344,30.7948171 32.1139062,30.3054878 C32.3015625,30.3490854 32.4921094,30.371875 32.6817969,30.371875 C33.5094531,30.371875 34.31875,29.9653201 34.7828906,29.2283537 C35.4933594,28.1002287 35.1307031,26.6185976 33.974375,25.9254573 L33.5728125,25.6847561 L34.9196094,24.3118902 L36.179375,25.5245427 C36.4003125,25.7371189 36.7644531,25.7418445 36.9910937,25.5352896 L39.7778906,22.9943598 C40.0142188,22.7787348 40.0267188,22.4169207 39.8057031,22.1862043 Z M11.0096094,31.5241616 C10.63625,32.1143293 9.84039063,32.2981707 9.23539063,31.9341463 C8.63039063,31.5699695 8.44195312,30.7935213 8.81515625,30.2032774 L12.0975,25.0134146 C12.4638281,24.4341463 13.2499219,24.2447409 13.8501562,24.5907012 C14.47125,24.9489329 14.6426562,25.7796494 14.2697656,26.3693598 L11.0096094,31.5241616 Z M14.20125,33.445503 C13.8280469,34.0356707 13.0321094,34.2195884 12.4271875,33.8554878 C11.8295313,33.4956555 11.6375781,32.7086128 12.0069531,32.1246189 L14.6327344,27.9727134 C14.9990625,27.3935213 15.7851563,27.2040396 16.3853906,27.55 C17.0064844,27.9082317 17.1778906,28.7389482 16.8049219,29.3286585 L14.20125,33.445503 Z M17.3932812,35.3668445 C17.2123437,35.6527439 16.928125,35.8528963 16.593125,35.9303354 C16.2578906,36.0078506 15.9120312,35.9532012 15.6189844,35.7768293 C15.0214062,35.416997 14.8294531,34.629878 15.1988281,34.0459604 L17.1682031,30.9320122 C17.5345312,30.3527439 18.3207031,30.1633384 18.9208594,30.5092988 C19.5419531,30.8675305 19.7133594,31.698247 19.3404687,32.2879573 L17.3932812,35.3668445 Z M21.8757812,35.2474085 L20.585,37.2882622 C20.2161719,37.8713415 19.4094531,38.0584604 18.8107812,37.6981707 C18.2132031,37.3384146 18.0213281,36.5512195 18.390625,35.9673018 L19.7035156,33.8913872 C20.0698438,33.3122713 20.8560156,33.122561 21.4561719,33.46875 C22.0772656,33.8269055 22.2486719,34.6576982 21.8757812,35.2474085 Z M32.5510937,25.0722561 L29.64625,23.3308689 C29.376875,23.1693598 29.0057031,23.2558689 28.8402344,23.5186738 C28.6746875,23.7814787 28.7633594,24.1435976 29.0327344,24.3050305 L33.360625,26.8994665 C33.96625,27.2625762 34.15625,28.0386433 33.7841406,28.6295732 C33.4119531,29.2204268 32.6164062,29.4057927 32.0107031,29.0427591 L27.3690625,26.2601372 C27.0933594,26.0947409 26.7324219,26.1789634 26.5630469,26.4479421 C26.3936719,26.7169207 26.4798438,27.0690549 26.7555469,27.2342988 L30.3321094,29.3783537 C30.9304687,29.7370427 31.1238281,30.5238567 30.755625,31.1084604 C30.3879687,31.6922256 29.5814844,31.8807927 28.9822656,31.5216463 L25.7410156,29.5785823 C25.4652344,29.4132622 25.104375,29.4974085 24.935,29.7663872 C24.765625,30.0353659 24.8517969,30.3875 25.1275,30.5527439 L27.3035938,31.8572409 C27.901875,32.2160061 28.0953125,33.0026677 27.7271094,33.5873476 C27.3594531,34.1710366 26.5529687,34.3597561 25.95375,34.0005335 C25.95375,34.0005335 24.04,32.8544207 24.0221094,32.8460366 C23.7545312,32.7199695 23.4273437,32.8096799 23.2685937,33.061814 C23.0992187,33.3307927 23.1853906,33.6829268 23.4610937,33.8481707 L24.2750781,34.336128 C24.8807031,34.6992378 25.070625,35.4753049 24.6985156,36.0662348 C24.3308594,36.65 23.524375,36.8385671 22.9251562,36.4794207 L22.5979687,36.2832317 L22.8735156,35.8474848 C23.2257812,35.2904726 23.3350781,34.604497 23.1733594,33.9654726 C23.0138281,33.3348323 22.6158594,32.8087652 22.0529687,32.4841463 C21.61375,32.2309451 21.1224219,32.1283537 20.6439844,32.1598323 C20.7338281,31.7833079 20.7342969,31.3865091 20.6380469,31.0060976 C20.4785156,30.3754573 20.0805469,29.8493902 19.5176562,29.5247713 C19.0784375,29.2714939 18.5871094,29.1689024 18.1086719,29.2003811 C18.3503125,28.1875762 17.9054687,27.0978659 16.9823437,26.5653963 C16.543125,26.3121951 16.0517969,26.2096037 15.5733594,26.2410061 C15.815,25.2282012 15.3701562,24.1384909 14.4470312,23.6060213 C13.3010156,22.945122 11.7998437,23.3070884 11.100625,24.4125762 L8.68578125,28.2308689 L6.2203125,26.8834604 L9.87171875,17.7796494 L11.8598438,18.1219512 C11.294375,18.8071646 11.1353906,19.771875 11.5338281,20.6256098 C11.9461719,21.5088415 12.8419531,22.0314787 13.7774219,22.0314024 C14.118125,22.0314024 14.4641406,21.9620427 14.7939063,21.8155488 L18.2257813,20.2905488 C18.5164062,20.1614329 18.6485937,19.8168445 18.5161719,19.5333079 C18.3838281,19.2498476 18.030625,19.1207317 17.74,19.25 L14.3080469,20.7749238 C13.66125,21.0624238 12.8950781,20.7827744 12.6003906,20.1516006 C12.3057813,19.5204268 12.5923438,18.7730945 13.2392969,18.4855945 L18.7310156,16.0454268 L25.2636719,16.5942835 C25.2804688,16.5957317 25.2972656,16.5964177 25.3139844,16.5964177 C25.4561719,16.5964177 25.5942188,16.5458841 25.7017969,16.4533537 L26.2578906,15.974314 L34.0849219,23.5085366 L32.5510937,25.0722561 Z" id="Shape" stroke="#198CFF" stroke-width="0.5" fill-rule="nonzero"></path>
                </g>
                <path d="M13.5285085,11.448038 C13.8175527,11.737494 13.8113525,12.2007459 13.5146601,12.4827402 C13.2179677,12.7647344 12.7431345,12.7586855 12.4540903,12.4692295 L8.08625965,8.09517484 C7.79721553,7.80571885 7.80341568,7.3424669 8.10010807,7.06047264 C8.39680047,6.77847838 8.87163372,6.78452731 9.16067784,7.0739833 L13.5285085,11.448038 Z" id="Path-2" fill="#FAA204" fill-rule="nonzero"></path>
                <path d="M22.0787628,10.9028886 C21.6965515,10.7471346 21.5161282,10.3185848 21.675776,9.94569575 L23.8079453,4.96559209 C23.9675931,4.59270304 24.4068566,4.41668027 24.7890679,4.57243422 C25.1712792,4.72818816 25.3517025,5.15673798 25.1920547,5.52962703 L23.0598854,10.5097307 C22.9002376,10.8826197 22.4609741,11.0586425 22.0787628,10.9028886 Z" id="Path-2" fill="#FAA204" fill-rule="nonzero"></path>
                <path d="M18.1036936,10.0863143 C18.1837384,10.4828078 17.9191705,10.8675357 17.5127646,10.9456282 C17.1063588,11.0237207 16.7120126,10.7656057 16.6319678,10.3691122 L14.7641371,1.11700871 C14.6840923,0.720515205 14.9486602,0.335787249 15.3550661,0.257694765 C15.7614719,0.179602281 16.1558181,0.437717305 16.2358629,0.834210806 L18.1036936,10.0863143 Z" id="Path-2" fill="#FAA204" fill-rule="nonzero"></path>
            </g>
        </g>
    </g>
</svg>
